<svg width="274" height="240" viewBox="0 0 274 240" fill="none" xmlns="http://www.w3.org/2000/svg">
<ellipse cx="187.221" cy="87.4978" rx="66.8819" ry="87.4978" fill="#278700"/>
<circle cx="87.4978" cy="151.743" r="87.4978" fill="#FF82BC"/>
<circle cx="68.7996" cy="114.265" r="5.51356" fill="black"/>
<circle cx="173.318" cy="56.7313" r="5.51356" fill="black"/>
<circle cx="103.799" cy="114.265" r="5.51356" fill="black"/>
<circle cx="201.125" cy="56.7313" r="5.51356" fill="black"/>
<path d="M76.7103 128.407C79.45 129.854 87.121 131.88 95.8879 128.407" stroke="black" stroke-width="3.83552" stroke-linecap="round"/>
<path d="M194.133 72.8877C192.305 71.852 187.165 70.3623 181.228 72.6895" stroke="black" stroke-width="3.83552" stroke-linecap="round"/>
<path d="M196.57 45.4642L204.961 41.6287M174.037 45.4642L168.283 39.7109" stroke="black" stroke-width="2.3972" stroke-linecap="round"/>
<path d="M81.7968 68.5224C82.9658 73.0942 87.089 80.1457 94.2302 71.7769C101.371 63.4082 88.9168 56.3568 81.7968 53.8771C79.4058 56.4343 76.0583 61.502 81.7968 61.316C87.5353 61.13 90.8828 49.9253 91.8392 44.3461V31.5605" stroke="black" stroke-width="2.3972" stroke-linecap="round"/>
<path d="M274 161.728C274 187.545 271.265 213.268 245.713 213.268C220.161 213.268 186.502 182.511 186.502 156.694C186.502 130.877 220.161 119.777 245.713 119.777C271.265 119.777 274 135.912 274 161.728Z" fill="#391E99"/>
<circle cx="217.186" cy="143.27" r="4.07524" fill="white" stroke="white" stroke-width="0.47944"/>
<path d="M245.233 139.194C247.629 139.194 249.549 141.032 249.549 143.271C249.549 145.509 247.629 147.346 245.233 147.346C242.838 147.346 240.918 145.509 240.918 143.271C240.918 141.032 242.838 139.194 245.233 139.194Z" fill="white" stroke="white" stroke-width="0.47944"/>
<path d="M227.734 151.421C228.693 152.506 231.378 154.026 234.446 151.421" stroke="white" stroke-width="3.83552" stroke-linecap="round"/>
</svg>
