<svg width="361" height="348" viewBox="0 0 361 348" fill="none" xmlns="http://www.w3.org/2000/svg">
<g opacity="0.75">
<rect width="361" height="115" rx="8" fill="#FFF3CF"/>
<rect x="10" y="14" width="88" height="88" rx="8" fill="#FFD147"/>
<path d="M132.574 54.9102H130.24C130.198 54.6083 130.111 54.3402 129.979 54.1058C129.848 53.8679 129.679 53.6655 129.473 53.4986C129.267 53.3317 129.029 53.2038 128.76 53.1151C128.493 53.0263 128.204 52.9819 127.891 52.9819C127.327 52.9819 126.835 53.1222 126.416 53.4027C125.997 53.6797 125.672 54.0845 125.441 54.6172C125.21 55.1463 125.095 55.7891 125.095 56.5455C125.095 57.3232 125.21 57.9766 125.441 58.5057C125.675 59.0348 126.002 59.4343 126.421 59.7042C126.84 59.9741 127.325 60.109 127.875 60.109C128.184 60.109 128.47 60.0682 128.733 59.9865C128.999 59.9048 129.235 59.7859 129.441 59.6296C129.647 59.4698 129.818 59.2763 129.953 59.049C130.091 58.8217 130.187 58.5625 130.24 58.2713L132.574 58.282C132.513 58.7827 132.362 59.2656 132.121 59.7308C131.883 60.1925 131.561 60.6062 131.157 60.9719C130.755 61.3342 130.276 61.6218 129.718 61.8349C129.164 62.0444 128.538 62.1491 127.838 62.1491C126.865 62.1491 125.995 61.929 125.228 61.4886C124.464 61.0483 123.861 60.4109 123.417 59.5763C122.977 58.7418 122.756 57.7315 122.756 56.5455C122.756 55.3558 122.98 54.3438 123.428 53.5092C123.875 52.6747 124.482 52.0391 125.249 51.6023C126.016 51.1619 126.879 50.9418 127.838 50.9418C128.47 50.9418 129.056 51.0305 129.596 51.2081C130.139 51.3857 130.62 51.6449 131.039 51.9858C131.458 52.3232 131.799 52.7369 132.062 53.2269C132.328 53.717 132.499 54.2781 132.574 54.9102ZM137.882 62.1598C137.054 62.1598 136.339 61.984 135.735 61.6325C135.135 61.2773 134.671 60.7837 134.345 60.1516C134.018 59.516 133.855 58.7791 133.855 57.9411C133.855 57.0959 134.018 56.3572 134.345 55.7251C134.671 55.0895 135.135 54.5959 135.735 54.2443C136.339 53.8892 137.054 53.7116 137.882 53.7116C138.709 53.7116 139.423 53.8892 140.023 54.2443C140.627 54.5959 141.092 55.0895 141.419 55.7251C141.745 56.3572 141.909 57.0959 141.909 57.9411C141.909 58.7791 141.745 59.516 141.419 60.1516C141.092 60.7837 140.627 61.2773 140.023 61.6325C139.423 61.984 138.709 62.1598 137.882 62.1598ZM137.892 60.402C138.269 60.402 138.583 60.2955 138.835 60.0824C139.087 59.8658 139.277 59.571 139.405 59.1982C139.536 58.8253 139.602 58.4009 139.602 57.9251C139.602 57.4492 139.536 57.0249 139.405 56.652C139.277 56.2791 139.087 55.9844 138.835 55.7678C138.583 55.5511 138.269 55.4428 137.892 55.4428C137.512 55.4428 137.193 55.5511 136.933 55.7678C136.678 55.9844 136.484 56.2791 136.353 56.652C136.225 57.0249 136.161 57.4492 136.161 57.9251C136.161 58.4009 136.225 58.8253 136.353 59.1982C136.484 59.571 136.678 59.8658 136.933 60.0824C137.193 60.2955 137.512 60.402 137.892 60.402ZM147.081 62.1598C146.253 62.1598 145.538 61.984 144.934 61.6325C144.334 61.2773 143.871 60.7837 143.544 60.1516C143.217 59.516 143.054 58.7791 143.054 57.9411C143.054 57.0959 143.217 56.3572 143.544 55.7251C143.871 55.0895 144.334 54.5959 144.934 54.2443C145.538 53.8892 146.253 53.7116 147.081 53.7116C147.908 53.7116 148.622 53.8892 149.222 54.2443C149.826 54.5959 150.291 55.0895 150.618 55.7251C150.944 56.3572 151.108 57.0959 151.108 57.9411C151.108 58.7791 150.944 59.516 150.618 60.1516C150.291 60.7837 149.826 61.2773 149.222 61.6325C148.622 61.984 147.908 62.1598 147.081 62.1598ZM147.091 60.402C147.468 60.402 147.782 60.2955 148.034 60.0824C148.286 59.8658 148.476 59.571 148.604 59.1982C148.736 58.8253 148.801 58.4009 148.801 57.9251C148.801 57.4492 148.736 57.0249 148.604 56.652C148.476 56.2791 148.286 55.9844 148.034 55.7678C147.782 55.5511 147.468 55.4428 147.091 55.4428C146.711 55.4428 146.392 55.5511 146.133 55.7678C145.877 55.9844 145.683 56.2791 145.552 56.652C145.424 57.0249 145.36 57.4492 145.36 57.9251C145.36 58.4009 145.424 58.8253 145.552 59.1982C145.683 59.571 145.877 59.8658 146.133 60.0824C146.392 60.2955 146.711 60.402 147.091 60.402ZM154.852 51.0909V62H152.583V51.0909H154.852ZM160.184 62V51.0909H164.488C165.312 51.0909 166.015 51.2383 166.598 51.533C167.184 51.8242 167.629 52.2379 167.935 52.7741C168.244 53.3068 168.398 53.9336 168.398 54.6545C168.398 55.3789 168.242 56.0021 167.93 56.5241C167.617 57.0426 167.164 57.4403 166.571 57.7173C165.982 57.9943 165.268 58.1328 164.43 58.1328H161.548V56.2791H164.057C164.497 56.2791 164.863 56.2187 165.154 56.098C165.445 55.9773 165.662 55.7962 165.804 55.5547C165.95 55.3132 166.023 55.0131 166.023 54.6545C166.023 54.2923 165.95 53.9869 165.804 53.7383C165.662 53.4897 165.444 53.3015 165.149 53.1737C164.858 53.0423 164.49 52.9766 164.046 52.9766H162.491V62H160.184ZM166.076 57.0355L168.787 62H166.241L163.588 57.0355H166.076ZM173.582 62.1598C172.741 62.1598 172.016 61.9893 171.409 61.6484C170.805 61.304 170.34 60.8175 170.014 60.1889C169.687 59.5568 169.524 58.8093 169.524 57.9464C169.524 57.1048 169.687 56.3661 170.014 55.7305C170.34 55.0948 170.8 54.5994 171.393 54.2443C171.99 53.8892 172.689 53.7116 173.492 53.7116C174.032 53.7116 174.534 53.7987 174.999 53.9727C175.468 54.1431 175.877 54.4006 176.225 54.745C176.576 55.0895 176.85 55.5227 177.045 56.0447C177.24 56.5632 177.338 57.1705 177.338 57.8665V58.4897H170.429V57.0835H175.202C175.202 56.7567 175.131 56.4673 174.989 56.2152C174.847 55.9631 174.65 55.766 174.397 55.6239C174.149 55.4783 173.859 55.4055 173.529 55.4055C173.185 55.4055 172.879 55.4854 172.613 55.6452C172.35 55.8015 172.144 56.0128 171.995 56.2791C171.846 56.5419 171.77 56.8349 171.766 57.158V58.495C171.766 58.8999 171.841 59.2496 171.99 59.5444C172.142 59.8391 172.357 60.0664 172.634 60.2262C172.911 60.386 173.24 60.4659 173.62 60.4659C173.872 60.4659 174.103 60.4304 174.312 60.3594C174.522 60.2884 174.701 60.1818 174.85 60.0398C174.999 59.8977 175.113 59.7237 175.191 59.5178L177.29 59.6562C177.183 60.1605 176.965 60.6009 176.635 60.9773C176.308 61.3501 175.885 61.6413 175.367 61.8509C174.852 62.0568 174.257 62.1598 173.582 62.1598ZM185.626 56.1513L183.549 56.2791C183.513 56.1016 183.437 55.9418 183.32 55.7997C183.203 55.6541 183.048 55.5387 182.856 55.4535C182.668 55.3647 182.443 55.3203 182.18 55.3203C181.828 55.3203 181.532 55.3949 181.29 55.544C181.049 55.6896 180.928 55.8849 180.928 56.13C180.928 56.3253 181.006 56.4904 181.162 56.6254C181.319 56.7603 181.587 56.8686 181.967 56.9503L183.448 57.2486C184.243 57.4119 184.836 57.6747 185.227 58.0369C185.617 58.3991 185.813 58.875 185.813 59.4645C185.813 60.0007 185.655 60.4712 185.339 60.8761C185.026 61.2809 184.596 61.5969 184.049 61.8242C183.506 62.0479 182.879 62.1598 182.169 62.1598C181.086 62.1598 180.223 61.9343 179.58 61.4833C178.941 61.0288 178.566 60.4109 178.456 59.6296L180.688 59.5124C180.756 59.8427 180.919 60.0948 181.178 60.2688C181.438 60.4393 181.77 60.5245 182.174 60.5245C182.572 60.5245 182.892 60.4482 183.133 60.2955C183.378 60.1392 183.503 59.9386 183.506 59.6935C183.503 59.4876 183.416 59.3189 183.245 59.1875C183.075 59.0526 182.812 58.9496 182.457 58.8786L181.04 58.5962C180.241 58.4364 179.646 58.1594 179.255 57.7653C178.868 57.3711 178.675 56.8686 178.675 56.2578C178.675 55.7322 178.817 55.2795 179.101 54.8995C179.389 54.5195 179.792 54.2266 180.31 54.0206C180.832 53.8146 181.443 53.7116 182.142 53.7116C183.176 53.7116 183.989 53.93 184.582 54.3668C185.179 54.8036 185.527 55.3984 185.626 56.1513ZM191.593 53.8182V55.5227H186.666V53.8182H191.593ZM187.785 51.858H190.054V59.4858C190.054 59.6953 190.086 59.8587 190.15 59.9759C190.214 60.0895 190.303 60.1694 190.416 60.2156C190.533 60.2617 190.668 60.2848 190.821 60.2848C190.928 60.2848 191.034 60.2759 191.141 60.2582C191.247 60.2369 191.329 60.2209 191.386 60.2102L191.743 61.8988C191.629 61.9343 191.469 61.9751 191.263 62.0213C191.057 62.071 190.807 62.1012 190.512 62.1119C189.965 62.1332 189.486 62.0604 189.074 61.8935C188.665 61.7266 188.348 61.4673 188.12 61.1158C187.893 60.7642 187.781 60.3203 187.785 59.7841V51.858ZM195.405 62.1545C194.883 62.1545 194.417 62.0639 194.009 61.8828C193.601 61.6982 193.278 61.4265 193.04 61.0678C192.805 60.7056 192.688 60.2546 192.688 59.7148C192.688 59.2603 192.771 58.8786 192.938 58.5696C193.105 58.2607 193.333 58.0121 193.62 57.8239C193.908 57.6357 194.235 57.4936 194.6 57.3977C194.97 57.3018 195.357 57.2344 195.762 57.1953C196.237 57.1456 196.621 57.0994 196.912 57.0568C197.203 57.0107 197.415 56.9432 197.546 56.8544C197.677 56.7656 197.743 56.6342 197.743 56.4602V56.4283C197.743 56.0909 197.637 55.8299 197.423 55.6452C197.214 55.4606 196.916 55.3683 196.529 55.3683C196.12 55.3683 195.795 55.4588 195.554 55.6399C195.312 55.8175 195.153 56.0412 195.074 56.3111L192.976 56.1406C193.082 55.6435 193.292 55.2138 193.604 54.8516C193.917 54.4858 194.32 54.2053 194.813 54.0099C195.311 53.8111 195.886 53.7116 196.539 53.7116C196.994 53.7116 197.429 53.7649 197.844 53.8714C198.263 53.978 198.634 54.1431 198.958 54.3668C199.284 54.5906 199.542 54.8782 199.73 55.2298C199.918 55.5778 200.012 55.995 200.012 56.4815V62H197.86V60.8654H197.796C197.665 61.1211 197.489 61.3466 197.269 61.5419C197.049 61.7337 196.784 61.8846 196.475 61.9947C196.166 62.1012 195.809 62.1545 195.405 62.1545ZM196.055 60.5884C196.388 60.5884 196.683 60.5227 196.939 60.3913C197.194 60.2564 197.395 60.0753 197.541 59.848C197.686 59.6207 197.759 59.3633 197.759 59.0756V58.2074C197.688 58.2536 197.59 58.2962 197.466 58.3352C197.345 58.3707 197.209 58.4045 197.056 58.4364C196.903 58.4648 196.751 58.4915 196.598 58.5163C196.445 58.5376 196.307 58.5572 196.182 58.5749C195.916 58.614 195.683 58.6761 195.485 58.7614C195.286 58.8466 195.131 58.962 195.021 59.1076C194.911 59.2496 194.856 59.4272 194.856 59.6403C194.856 59.9492 194.968 60.1854 195.192 60.3487C195.419 60.5085 195.706 60.5884 196.055 60.5884ZM207.02 58.5163V53.8182H209.289V62H207.11V60.5138H207.025C206.84 60.9933 206.533 61.3786 206.103 61.6697C205.677 61.9609 205.157 62.1065 204.543 62.1065C203.996 62.1065 203.515 61.9822 203.099 61.7337C202.684 61.4851 202.359 61.1317 202.124 60.6737C201.893 60.2156 201.776 59.6669 201.773 59.0277V53.8182H204.042V58.6229C204.045 59.1058 204.175 59.4876 204.431 59.7681C204.686 60.0487 205.029 60.1889 205.459 60.1889C205.732 60.1889 205.988 60.1268 206.226 60.0025C206.464 59.8746 206.656 59.6864 206.801 59.4379C206.95 59.1893 207.023 58.8821 207.02 58.5163ZM211.104 62V53.8182H213.304V55.2457H213.389C213.538 54.7379 213.788 54.3544 214.14 54.0952C214.492 53.8324 214.896 53.701 215.354 53.701C215.468 53.701 215.591 53.7081 215.722 53.7223C215.853 53.7365 215.969 53.756 216.068 53.7809V55.7944C215.962 55.7624 215.814 55.734 215.626 55.7092C215.438 55.6843 215.266 55.6719 215.109 55.6719C214.776 55.6719 214.477 55.7447 214.215 55.8903C213.955 56.0323 213.749 56.2312 213.597 56.4869C213.448 56.7425 213.373 57.0373 213.373 57.3711V62H211.104ZM219.34 62.1545C218.818 62.1545 218.353 62.0639 217.945 61.8828C217.536 61.6982 217.213 61.4265 216.975 61.0678C216.741 60.7056 216.624 60.2546 216.624 59.7148C216.624 59.2603 216.707 58.8786 216.874 58.5696C217.041 58.2607 217.268 58.0121 217.556 57.8239C217.843 57.6357 218.17 57.4936 218.536 57.3977C218.905 57.3018 219.292 57.2344 219.697 57.1953C220.173 57.1456 220.556 57.0994 220.848 57.0568C221.139 57.0107 221.35 56.9432 221.482 56.8544C221.613 56.7656 221.679 56.6342 221.679 56.4602V56.4283C221.679 56.0909 221.572 55.8299 221.359 55.6452C221.15 55.4606 220.851 55.3683 220.464 55.3683C220.056 55.3683 219.731 55.4588 219.489 55.6399C219.248 55.8175 219.088 56.0412 219.01 56.3111L216.911 56.1406C217.018 55.6435 217.227 55.2138 217.54 54.8516C217.852 54.4858 218.255 54.2053 218.749 54.0099C219.246 53.8111 219.821 53.7116 220.475 53.7116C220.929 53.7116 221.364 53.7649 221.78 53.8714C222.199 53.978 222.57 54.1431 222.893 54.3668C223.22 54.5906 223.477 54.8782 223.665 55.2298C223.854 55.5778 223.948 55.995 223.948 56.4815V62H221.796V60.8654H221.732C221.6 61.1211 221.425 61.3466 221.205 61.5419C220.984 61.7337 220.72 61.8846 220.411 61.9947C220.102 62.1012 219.745 62.1545 219.34 62.1545ZM219.99 60.5884C220.324 60.5884 220.619 60.5227 220.874 60.3913C221.13 60.2564 221.331 60.0753 221.476 59.848C221.622 59.6207 221.695 59.3633 221.695 59.0756V58.2074C221.624 58.2536 221.526 58.2962 221.402 58.3352C221.281 58.3707 221.144 58.4045 220.991 58.4364C220.839 58.4648 220.686 58.4915 220.533 58.5163C220.381 58.5376 220.242 58.5572 220.118 58.5749C219.852 58.614 219.619 58.6761 219.42 58.7614C219.221 58.8466 219.067 58.962 218.957 59.1076C218.847 59.2496 218.792 59.4272 218.792 59.6403C218.792 59.9492 218.903 60.1854 219.127 60.3487C219.354 60.5085 219.642 60.5884 219.99 60.5884ZM227.977 57.2699V62H225.708V53.8182H227.871V55.2617H227.967C228.148 54.7859 228.452 54.4094 228.878 54.1325C229.304 53.8519 229.82 53.7116 230.428 53.7116C230.996 53.7116 231.491 53.8359 231.914 54.0845C232.336 54.3331 232.665 54.6882 232.899 55.1499C233.134 55.608 233.251 56.1548 233.251 56.7905V62H230.982V57.1953C230.985 56.6946 230.857 56.304 230.598 56.0234C230.339 55.7393 229.982 55.5973 229.528 55.5973C229.222 55.5973 228.952 55.663 228.718 55.7944C228.487 55.9258 228.306 56.1175 228.175 56.3697C228.047 56.6183 227.981 56.9183 227.977 57.2699ZM239.391 53.8182V55.5227H234.464V53.8182H239.391ZM235.583 51.858H237.852V59.4858C237.852 59.6953 237.884 59.8587 237.948 59.9759C238.012 60.0895 238.1 60.1694 238.214 60.2156C238.331 60.2617 238.466 60.2848 238.619 60.2848C238.725 60.2848 238.832 60.2759 238.938 60.2582C239.045 60.2369 239.127 60.2209 239.184 60.2102L239.54 61.8988C239.427 61.9343 239.267 61.9751 239.061 62.0213C238.855 62.071 238.605 62.1012 238.31 62.1119C237.763 62.1332 237.284 62.0604 236.872 61.8935C236.463 61.7266 236.146 61.4673 235.918 61.1158C235.691 60.7642 235.579 60.3203 235.583 59.7841V51.858Z" fill="#363636"/>
<path d="M123.415 26H122.307L125.511 17.2727H126.602L129.807 26H128.699L126.091 18.6534H126.023L123.415 26ZM123.824 22.5909H128.29V23.5284H123.824V22.5909ZM132.036 22.0625V26H131.03V19.4545H132.001V20.4773H132.087C132.24 20.1449 132.473 19.8778 132.786 19.6761C133.098 19.4716 133.501 19.3693 133.996 19.3693C134.439 19.3693 134.827 19.4602 135.159 19.642C135.491 19.821 135.75 20.0938 135.935 20.4602C136.119 20.8239 136.212 21.2841 136.212 21.8409V26H135.206V21.9091C135.206 21.3949 135.072 20.9943 134.805 20.7074C134.538 20.4176 134.172 20.2727 133.706 20.2727C133.385 20.2727 133.098 20.3423 132.845 20.4815C132.595 20.6207 132.398 20.8239 132.253 21.0909C132.108 21.358 132.036 21.6818 132.036 22.0625ZM139.055 22.0625V26H138.049V19.4545H139.021V20.4773H139.106C139.26 20.1449 139.493 19.8778 139.805 19.6761C140.118 19.4716 140.521 19.3693 141.015 19.3693C141.458 19.3693 141.846 19.4602 142.179 19.642C142.511 19.821 142.77 20.0938 142.954 20.4602C143.139 20.8239 143.231 21.2841 143.231 21.8409V26H142.225V21.9091C142.225 21.3949 142.092 20.9943 141.825 20.7074C141.558 20.4176 141.191 20.2727 140.725 20.2727C140.404 20.2727 140.118 20.3423 139.865 20.4815C139.615 20.6207 139.417 20.8239 139.272 21.0909C139.127 21.358 139.055 21.6818 139.055 22.0625ZM145.069 26V19.4545H146.075V26H145.069ZM145.58 18.3636C145.384 18.3636 145.215 18.2969 145.073 18.1634C144.934 18.0298 144.864 17.8693 144.864 17.6818C144.864 17.4943 144.934 17.3338 145.073 17.2003C145.215 17.0668 145.384 17 145.58 17C145.776 17 145.944 17.0668 146.083 17.2003C146.225 17.3338 146.296 17.4943 146.296 17.6818C146.296 17.8693 146.225 18.0298 146.083 18.1634C145.944 18.2969 145.776 18.3636 145.58 18.3636ZM150.661 26.1364C150.03 26.1364 149.486 25.9972 149.029 25.7188C148.574 25.4375 148.223 25.0455 147.976 24.5426C147.732 24.0369 147.61 23.4489 147.61 22.7784C147.61 22.108 147.732 21.517 147.976 21.0057C148.223 20.4915 148.567 20.0909 149.007 19.804C149.451 19.5142 149.968 19.3693 150.559 19.3693C150.9 19.3693 151.236 19.4261 151.569 19.5398C151.901 19.6534 152.203 19.8381 152.476 20.0938C152.749 20.3466 152.966 20.6818 153.128 21.0994C153.29 21.517 153.371 22.0312 153.371 22.642V23.0682H148.326V22.1989H152.348C152.348 21.8295 152.275 21.5 152.127 21.2102C151.982 20.9205 151.775 20.6918 151.505 20.5241C151.238 20.3565 150.922 20.2727 150.559 20.2727C150.158 20.2727 149.811 20.3722 149.519 20.571C149.229 20.767 149.006 21.0227 148.85 21.3381C148.694 21.6534 148.615 21.9915 148.615 22.3523V22.9318C148.615 23.4261 148.701 23.8452 148.871 24.1889C149.044 24.5298 149.284 24.7898 149.591 24.9688C149.898 25.1449 150.255 25.233 150.661 25.233C150.925 25.233 151.164 25.196 151.377 25.1222C151.593 25.0455 151.779 24.9318 151.935 24.7812C152.091 24.6278 152.212 24.4375 152.297 24.2102L153.269 24.483C153.167 24.8125 152.995 25.1023 152.753 25.3523C152.512 25.5994 152.213 25.7926 151.858 25.9318C151.503 26.0682 151.104 26.1364 150.661 26.1364ZM158.276 28.4545V19.4545H159.248V20.4943H159.367C159.441 20.3807 159.543 20.2358 159.674 20.0597C159.807 19.8807 159.998 19.7216 160.245 19.5824C160.495 19.4403 160.833 19.3693 161.259 19.3693C161.81 19.3693 162.296 19.5071 162.716 19.7827C163.137 20.0582 163.465 20.4489 163.701 20.9545C163.936 21.4602 164.054 22.0568 164.054 22.7443C164.054 23.4375 163.936 24.0384 163.701 24.5469C163.465 25.0526 163.138 25.4446 162.721 25.723C162.303 25.9986 161.821 26.1364 161.276 26.1364C160.855 26.1364 160.519 26.0668 160.266 25.9276C160.013 25.7855 159.819 25.625 159.682 25.446C159.546 25.2642 159.441 25.1136 159.367 24.9943H159.282V28.4545H158.276ZM159.265 22.7273C159.265 23.2216 159.337 23.6577 159.482 24.0355C159.627 24.4105 159.838 24.7045 160.117 24.9176C160.395 25.1278 160.736 25.233 161.14 25.233C161.56 25.233 161.911 25.1222 162.192 24.9006C162.476 24.6761 162.689 24.375 162.831 23.9972C162.976 23.6165 163.049 23.1932 163.049 22.7273C163.049 22.267 162.978 21.8523 162.836 21.483C162.696 21.1108 162.485 20.8168 162.201 20.6009C161.919 20.3821 161.566 20.2727 161.14 20.2727C160.73 20.2727 160.387 20.3764 160.108 20.5838C159.83 20.7884 159.62 21.0753 159.478 21.4446C159.336 21.8111 159.265 22.2386 159.265 22.7273ZM165.588 26V19.4545H166.594V26H165.588ZM166.1 18.3636C165.904 18.3636 165.735 18.2969 165.593 18.1634C165.453 18.0298 165.384 17.8693 165.384 17.6818C165.384 17.4943 165.453 17.3338 165.593 17.2003C165.735 17.0668 165.904 17 166.1 17C166.296 17 166.463 17.0668 166.603 17.2003C166.745 17.3338 166.816 17.4943 166.816 17.6818C166.816 17.8693 166.745 18.0298 166.603 18.1634C166.463 18.2969 166.296 18.3636 166.1 18.3636ZM171.095 26.1364C170.482 26.1364 169.953 25.9915 169.51 25.7017C169.067 25.4119 168.726 25.0128 168.487 24.5043C168.249 23.9957 168.129 23.4148 168.129 22.7614C168.129 22.0966 168.251 21.5099 168.496 21.0014C168.743 20.4901 169.087 20.0909 169.527 19.804C169.97 19.5142 170.487 19.3693 171.078 19.3693C171.538 19.3693 171.953 19.4545 172.322 19.625C172.692 19.7955 172.994 20.0341 173.23 20.3409C173.466 20.6477 173.612 21.0057 173.669 21.4148H172.663C172.587 21.1165 172.416 20.8523 172.152 20.6222C171.891 20.3892 171.538 20.2727 171.095 20.2727C170.703 20.2727 170.359 20.375 170.064 20.5795C169.771 20.7812 169.543 21.0668 169.378 21.4361C169.216 21.8026 169.135 22.233 169.135 22.7273C169.135 23.233 169.214 23.6733 169.374 24.0483C169.536 24.4233 169.763 24.7145 170.055 24.9219C170.351 25.1293 170.697 25.233 171.095 25.233C171.357 25.233 171.594 25.1875 171.807 25.0966C172.02 25.0057 172.2 24.875 172.348 24.7045C172.496 24.5341 172.601 24.3295 172.663 24.0909H173.669C173.612 24.4773 173.472 24.8253 173.247 25.1349C173.026 25.4418 172.732 25.6861 172.365 25.8679C172.001 26.0469 171.578 26.1364 171.095 26.1364ZM176.077 23.6136L176.06 22.3693H176.264L179.128 19.4545H180.372L177.321 22.5398H177.236L176.077 23.6136ZM175.139 26V17.2727H176.145V26H175.139ZM179.298 26L176.741 22.7614L177.457 22.0625L180.577 26H179.298ZM184.141 26.1364C183.511 26.1364 182.967 25.9972 182.509 25.7188C182.055 25.4375 181.704 25.0455 181.457 24.5426C181.212 24.0369 181.09 23.4489 181.09 22.7784C181.09 22.108 181.212 21.517 181.457 21.0057C181.704 20.4915 182.048 20.0909 182.488 19.804C182.931 19.5142 183.448 19.3693 184.039 19.3693C184.38 19.3693 184.717 19.4261 185.049 19.5398C185.381 19.6534 185.684 19.8381 185.957 20.0938C186.229 20.3466 186.447 20.6818 186.609 21.0994C186.771 21.517 186.852 22.0312 186.852 22.642V23.0682H181.806V22.1989H185.829C185.829 21.8295 185.755 21.5 185.607 21.2102C185.462 20.9205 185.255 20.6918 184.985 20.5241C184.718 20.3565 184.403 20.2727 184.039 20.2727C183.638 20.2727 183.292 20.3722 182.999 20.571C182.71 20.767 182.487 21.0227 182.33 21.3381C182.174 21.6534 182.096 21.9915 182.096 22.3523V22.9318C182.096 23.4261 182.181 23.8452 182.352 24.1889C182.525 24.5298 182.765 24.7898 183.072 24.9688C183.379 25.1449 183.735 25.233 184.141 25.233C184.406 25.233 184.644 25.196 184.857 25.1222C185.073 25.0455 185.259 24.9318 185.415 24.7812C185.572 24.6278 185.692 24.4375 185.778 24.2102L186.749 24.483C186.647 24.8125 186.475 25.1023 186.234 25.3523C185.992 25.5994 185.694 25.7926 185.339 25.9318C184.984 26.0682 184.585 26.1364 184.141 26.1364ZM190.853 26.1364C190.308 26.1364 189.826 25.9986 189.408 25.723C188.991 25.4446 188.664 25.0526 188.428 24.5469C188.192 24.0384 188.075 23.4375 188.075 22.7443C188.075 22.0568 188.192 21.4602 188.428 20.9545C188.664 20.4489 188.992 20.0582 189.413 19.7827C189.833 19.5071 190.319 19.3693 190.87 19.3693C191.296 19.3693 191.633 19.4403 191.88 19.5824C192.13 19.7216 192.32 19.8807 192.451 20.0597C192.585 20.2358 192.688 20.3807 192.762 20.4943H192.847V17.2727H193.853V26H192.881V24.9943H192.762C192.688 25.1136 192.583 25.2642 192.447 25.446C192.31 25.625 192.116 25.7855 191.863 25.9276C191.61 26.0668 191.273 26.1364 190.853 26.1364ZM190.989 25.233C191.393 25.233 191.734 25.1278 192.012 24.9176C192.29 24.7045 192.502 24.4105 192.647 24.0355C192.792 23.6577 192.864 23.2216 192.864 22.7273C192.864 22.2386 192.793 21.8111 192.651 21.4446C192.509 21.0753 192.299 20.7884 192.021 20.5838C191.742 20.3764 191.398 20.2727 190.989 20.2727C190.563 20.2727 190.208 20.3821 189.924 20.6009C189.643 20.8168 189.431 21.1108 189.289 21.483C189.15 21.8523 189.08 22.267 189.08 22.7273C189.08 23.1932 189.151 23.6165 189.293 23.9972C189.438 24.375 189.651 24.6761 189.933 24.9006C190.217 25.1222 190.569 25.233 190.989 25.233Z" fill="#391E99"/>
<path d="M126.634 75.8182V86H125.401V77.1108H125.341L122.855 78.7614V77.5085L125.401 75.8182H126.634ZM129.562 86V85.1051L132.923 81.4261C133.317 80.9953 133.642 80.6207 133.897 80.3026C134.152 79.9811 134.341 79.6795 134.464 79.3977C134.59 79.1127 134.653 78.8144 134.653 78.5028C134.653 78.1449 134.567 77.835 134.394 77.5732C134.225 77.3113 133.993 77.1091 133.698 76.9666C133.403 76.8241 133.072 76.7528 132.704 76.7528C132.313 76.7528 131.971 76.834 131.68 76.9964C131.391 77.1555 131.168 77.3793 131.009 77.6676C130.853 77.956 130.775 78.294 130.775 78.6818H129.602C129.602 78.0852 129.739 77.5616 130.014 77.1108C130.289 76.66 130.664 76.3087 131.138 76.0568C131.615 75.8049 132.15 75.679 132.744 75.679C133.34 75.679 133.869 75.8049 134.33 76.0568C134.79 76.3087 135.152 76.6484 135.413 77.076C135.675 77.5036 135.806 77.9792 135.806 78.5028C135.806 78.8774 135.738 79.2436 135.602 79.6016C135.47 79.9562 135.238 80.3523 134.906 80.7898C134.578 81.224 134.122 81.7543 133.539 82.3807L131.252 84.8267V84.9062H135.985V86H129.562ZM141.479 86.1392C140.822 86.1392 140.237 86.0265 139.724 85.8011C139.213 85.5758 138.807 85.2625 138.506 84.8615C138.207 84.4571 138.045 83.9882 138.018 83.4545H139.271C139.298 83.7827 139.411 84.0661 139.609 84.3047C139.808 84.54 140.068 84.7223 140.39 84.8516C140.711 84.9808 141.068 85.0455 141.459 85.0455C141.896 85.0455 142.284 84.9692 142.622 84.8168C142.96 84.6643 143.225 84.4522 143.418 84.1804C143.61 83.9086 143.706 83.5938 143.706 83.2358C143.706 82.8613 143.613 82.5315 143.428 82.2464C143.242 81.9581 142.97 81.7327 142.612 81.5703C142.254 81.4079 141.817 81.3267 141.3 81.3267H140.484V80.233H141.3C141.704 80.233 142.059 80.16 142.364 80.0142C142.672 79.8684 142.912 79.6629 143.085 79.3977C143.26 79.1326 143.348 78.821 143.348 78.4631C143.348 78.1184 143.272 77.8184 143.119 77.5632C142.967 77.308 142.751 77.1091 142.473 76.9666C142.198 76.8241 141.873 76.7528 141.499 76.7528C141.147 76.7528 140.816 76.8175 140.504 76.9467C140.196 77.0727 139.944 77.2566 139.749 77.4986C139.553 77.7372 139.447 78.0256 139.43 78.3636H138.237C138.257 77.83 138.418 77.3627 138.719 76.9616C139.021 76.5573 139.415 76.2424 139.903 76.017C140.393 75.7917 140.932 75.679 141.518 75.679C142.148 75.679 142.688 75.8066 143.139 76.0618C143.59 76.3137 143.936 76.6468 144.178 77.0611C144.42 77.4754 144.541 77.9228 144.541 78.4034C144.541 78.9768 144.39 79.4657 144.089 79.87C143.79 80.2744 143.384 80.5545 142.871 80.7102V80.7898C143.514 80.8958 144.016 81.1693 144.377 81.6101C144.738 82.0476 144.919 82.5895 144.919 83.2358C144.919 83.7893 144.768 84.2865 144.467 84.7273C144.168 85.1648 143.761 85.5095 143.244 85.7614C142.727 86.0133 142.138 86.1392 141.479 86.1392ZM146.714 83.9119V82.8977L151.188 75.8182H151.924V77.3892H151.427L148.046 82.7386V82.8182H154.072V83.9119H146.714ZM151.506 86V83.6037V83.1314V75.8182H152.68V86H151.506ZM160.051 75.8182H161.523L164.983 84.2699H165.102L168.563 75.8182H170.034V86H168.881V78.2642H168.781L165.6 86H164.486L161.304 78.2642H161.205V86H160.051V75.8182ZM174.594 86.179C174.111 86.179 173.671 86.0878 173.277 85.9055C172.883 85.7199 172.569 85.4531 172.337 85.1051C172.105 84.7538 171.989 84.3295 171.989 83.8324C171.989 83.3949 172.076 83.0402 172.248 82.7685C172.42 82.4934 172.651 82.2779 172.939 82.1222C173.227 81.9664 173.545 81.8504 173.893 81.7741C174.245 81.6946 174.598 81.6316 174.952 81.5852C175.416 81.5256 175.793 81.4808 176.081 81.451C176.373 81.4179 176.585 81.3632 176.717 81.2869C176.853 81.2107 176.921 81.0781 176.921 80.8892V80.8494C176.921 80.3589 176.787 79.9777 176.518 79.706C176.253 79.4342 175.851 79.2983 175.31 79.2983C174.75 79.2983 174.311 79.4209 173.993 79.6662C173.675 79.9115 173.451 80.1733 173.322 80.4517L172.208 80.054C172.407 79.59 172.672 79.2287 173.004 78.9702C173.338 78.7083 173.703 78.526 174.097 78.4233C174.495 78.3172 174.886 78.2642 175.271 78.2642C175.516 78.2642 175.798 78.294 176.116 78.3537C176.437 78.41 176.747 78.5277 177.045 78.7067C177.347 78.8857 177.597 79.1558 177.796 79.517C177.995 79.8783 178.094 80.3622 178.094 80.9688V86H176.921V84.9659H176.862C176.782 85.1316 176.649 85.3089 176.464 85.4979C176.278 85.6868 176.031 85.8475 175.723 85.9801C175.415 86.1127 175.039 86.179 174.594 86.179ZM174.773 85.125C175.237 85.125 175.629 85.0339 175.947 84.8516C176.268 84.6693 176.51 84.4339 176.673 84.1456C176.838 83.8572 176.921 83.554 176.921 83.2358V82.1619C176.871 82.2216 176.762 82.2763 176.593 82.326C176.427 82.3724 176.235 82.4138 176.016 82.4503C175.801 82.4834 175.59 82.5133 175.385 82.5398C175.183 82.563 175.019 82.5829 174.893 82.5994C174.588 82.6392 174.303 82.7038 174.038 82.7933C173.776 82.8795 173.564 83.0104 173.401 83.1861C173.242 83.3584 173.163 83.5937 173.163 83.892C173.163 84.2997 173.313 84.608 173.615 84.8168C173.92 85.0223 174.306 85.125 174.773 85.125ZM180.236 88.8636V78.3636H181.369V79.5767H181.509C181.595 79.4441 181.714 79.2751 181.867 79.0696C182.022 78.8608 182.244 78.6752 182.533 78.5128C182.825 78.3471 183.219 78.2642 183.716 78.2642C184.359 78.2642 184.926 78.425 185.416 78.7464C185.907 79.0679 186.29 79.5237 186.565 80.1136C186.84 80.7036 186.977 81.3996 186.977 82.2017C186.977 83.0104 186.84 83.7114 186.565 84.3047C186.29 84.8946 185.909 85.352 185.421 85.6768C184.934 85.9983 184.372 86.1591 183.736 86.1591C183.245 86.1591 182.853 86.0779 182.558 85.9155C182.263 85.7498 182.036 85.5625 181.877 85.3537C181.718 85.1416 181.595 84.9659 181.509 84.8267H181.409V88.8636H180.236ZM181.389 82.1818C181.389 82.7585 181.474 83.2673 181.643 83.7081C181.812 84.1456 182.059 84.4886 182.384 84.7372C182.709 84.9825 183.106 85.1051 183.577 85.1051C184.067 85.1051 184.477 84.9759 184.805 84.7173C185.136 84.4555 185.385 84.1042 185.551 83.6634C185.72 83.2192 185.804 82.7254 185.804 82.1818C185.804 81.6449 185.721 81.161 185.556 80.7301C185.393 80.2959 185.146 79.9529 184.815 79.701C184.487 79.4458 184.074 79.3182 183.577 79.3182C183.1 79.3182 182.699 79.4392 182.374 79.6811C182.049 79.9197 181.804 80.2545 181.638 80.6854C181.472 81.1129 181.389 81.6117 181.389 82.1818ZM189.941 75.8182V86H188.767V75.8182H189.941ZM195.291 86.1591C194.555 86.1591 193.921 85.9967 193.387 85.6719C192.857 85.3438 192.447 84.8864 192.159 84.2997C191.874 83.7098 191.732 83.0237 191.732 82.2415C191.732 81.4593 191.874 80.7699 192.159 80.1733C192.447 79.5734 192.848 79.1061 193.362 78.7713C193.879 78.4332 194.482 78.2642 195.172 78.2642C195.57 78.2642 195.962 78.3305 196.35 78.4631C196.738 78.5956 197.091 78.8111 197.409 79.1094C197.727 79.4044 197.981 79.7955 198.17 80.2827C198.359 80.7699 198.453 81.3698 198.453 82.0824V82.5795H192.567V81.5653H197.26C197.26 81.1345 197.174 80.75 197.001 80.4119C196.832 80.0739 196.59 79.8071 196.276 79.6115C195.964 79.416 195.596 79.3182 195.172 79.3182C194.705 79.3182 194.3 79.4342 193.959 79.6662C193.621 79.8949 193.361 80.1932 193.178 80.5611C192.996 80.929 192.905 81.3234 192.905 81.7443V82.4205C192.905 82.9972 193.004 83.486 193.203 83.8871C193.405 84.2848 193.685 84.5881 194.043 84.7969C194.401 85.0024 194.817 85.1051 195.291 85.1051C195.599 85.1051 195.878 85.062 196.126 84.9759C196.378 84.8864 196.595 84.7538 196.778 84.5781C196.96 84.3991 197.101 84.1771 197.2 83.9119L198.334 84.2301C198.214 84.6146 198.014 84.9527 197.732 85.2443C197.451 85.5327 197.103 85.758 196.688 85.9205C196.274 86.0795 195.808 86.1591 195.291 86.1591ZM209.903 78.3636C209.843 77.8598 209.601 77.4688 209.177 77.1903C208.753 76.9119 208.232 76.7727 207.616 76.7727C207.165 76.7727 206.771 76.8456 206.433 76.9915C206.098 77.1373 205.836 77.3378 205.647 77.593C205.461 77.8482 205.369 78.1383 205.369 78.4631C205.369 78.7348 205.433 78.9685 205.562 79.1641C205.695 79.3563 205.864 79.517 206.07 79.6463C206.275 79.7723 206.491 79.8767 206.716 79.9595C206.941 80.0391 207.148 80.1037 207.337 80.1534L208.371 80.4318C208.637 80.5014 208.932 80.5975 209.256 80.7202C209.585 80.8428 209.898 81.0102 210.196 81.2223C210.498 81.4311 210.746 81.6996 210.942 82.0277C211.137 82.3558 211.235 82.7585 211.235 83.2358C211.235 83.786 211.091 84.2831 210.803 84.7273C210.518 85.1714 210.1 85.5244 209.55 85.7862C209.003 86.0481 208.338 86.179 207.556 86.179C206.827 86.179 206.196 86.0613 205.662 85.826C205.132 85.5907 204.714 85.2625 204.409 84.8416C204.107 84.4207 203.937 83.9318 203.897 83.375H205.17C205.203 83.7595 205.332 84.0777 205.558 84.3295C205.786 84.5781 206.075 84.7637 206.423 84.8864C206.774 85.0057 207.152 85.0653 207.556 85.0653C208.027 85.0653 208.449 84.9891 208.824 84.8366C209.198 84.6809 209.495 84.4654 209.714 84.1903C209.933 83.9119 210.042 83.5871 210.042 83.2159C210.042 82.8778 209.947 82.6027 209.759 82.3906C209.57 82.1785 209.321 82.0062 209.013 81.8736C208.705 81.741 208.371 81.625 208.013 81.5256L206.761 81.1676C205.965 80.9389 205.335 80.6125 204.871 80.1882C204.407 79.764 204.175 79.2088 204.175 78.5227C204.175 77.9527 204.33 77.4555 204.638 77.0312C204.949 76.6037 205.367 76.2723 205.891 76.0369C206.418 75.7983 207.006 75.679 207.656 75.679C208.312 75.679 208.895 75.7966 209.406 76.032C209.916 76.264 210.32 76.5821 210.619 76.9865C210.92 77.3909 211.079 77.8499 211.096 78.3636H209.903ZM216.424 78.3636V79.358H212.467V78.3636H216.424ZM213.62 76.5341H214.794V83.8125C214.794 84.1439 214.842 84.3925 214.938 84.5582C215.037 84.7206 215.163 84.83 215.316 84.8864C215.471 84.9394 215.635 84.9659 215.808 84.9659C215.937 84.9659 216.043 84.9593 216.126 84.946C216.209 84.9295 216.275 84.9162 216.325 84.9062L216.563 85.9602C216.484 85.9901 216.373 86.0199 216.23 86.0497C216.088 86.0829 215.907 86.0994 215.688 86.0994C215.357 86.0994 215.032 86.0282 214.714 85.8857C214.399 85.7431 214.137 85.526 213.928 85.2344C213.723 84.9427 213.62 84.5748 213.62 84.1307V76.5341ZM219.044 86.0795C218.799 86.0795 218.588 85.9917 218.413 85.8161C218.237 85.6404 218.149 85.4299 218.149 85.1847C218.149 84.9394 218.237 84.7289 218.413 84.5533C218.588 84.3776 218.799 84.2898 219.044 84.2898C219.289 84.2898 219.5 84.3776 219.676 84.5533C219.851 84.7289 219.939 84.9394 219.939 85.1847C219.939 85.3471 219.898 85.4962 219.815 85.6321C219.735 85.768 219.628 85.8774 219.492 85.9602C219.359 86.0398 219.21 86.0795 219.044 86.0795ZM226.559 75.8182L229.581 84.3892H229.701L232.724 75.8182H234.016L230.278 86H229.005L225.266 75.8182H226.559ZM236.979 86.179C236.495 86.179 236.056 86.0878 235.662 85.9055C235.267 85.7199 234.954 85.4531 234.722 85.1051C234.49 84.7538 234.374 84.3295 234.374 83.8324C234.374 83.3949 234.46 83.0402 234.633 82.7685C234.805 82.4934 235.035 82.2779 235.324 82.1222C235.612 81.9664 235.93 81.8504 236.278 81.7741C236.63 81.6946 236.983 81.6316 237.337 81.5852C237.801 81.5256 238.177 81.4808 238.466 81.451C238.757 81.4179 238.97 81.3632 239.102 81.2869C239.238 81.2107 239.306 81.0781 239.306 80.8892V80.8494C239.306 80.3589 239.172 79.9777 238.903 79.706C238.638 79.4342 238.235 79.2983 237.695 79.2983C237.135 79.2983 236.696 79.4209 236.378 79.6662C236.059 79.9115 235.836 80.1733 235.706 80.4517L234.593 80.054C234.792 79.59 235.057 79.2287 235.388 78.9702C235.723 78.7083 236.088 78.526 236.482 78.4233C236.88 78.3172 237.271 78.2642 237.655 78.2642C237.901 78.2642 238.182 78.294 238.501 78.3537C238.822 78.41 239.132 78.5277 239.43 78.7067C239.732 78.8857 239.982 79.1558 240.181 79.517C240.38 79.8783 240.479 80.3622 240.479 80.9688V86H239.306V84.9659H239.246C239.167 85.1316 239.034 85.3089 238.849 85.4979C238.663 85.6868 238.416 85.8475 238.108 85.9801C237.8 86.1127 237.423 86.179 236.979 86.179ZM237.158 85.125C237.622 85.125 238.013 85.0339 238.331 84.8516C238.653 84.6693 238.895 84.4339 239.057 84.1456C239.223 83.8572 239.306 83.554 239.306 83.2358V82.1619C239.256 82.2216 239.147 82.2763 238.978 82.326C238.812 82.3724 238.62 82.4138 238.401 82.4503C238.186 82.4834 237.975 82.5133 237.77 82.5398C237.568 82.563 237.403 82.5829 237.278 82.5994C236.973 82.6392 236.688 82.7038 236.422 82.7933C236.161 82.8795 235.948 83.0104 235.786 83.1861C235.627 83.3584 235.547 83.5937 235.547 83.892C235.547 84.2997 235.698 84.608 236 84.8168C236.305 85.0223 236.691 85.125 237.158 85.125ZM243.794 81.4062V86H242.621V78.3636H243.754V79.5568H243.854C244.033 79.169 244.304 78.8575 244.669 78.6222C245.034 78.3835 245.504 78.2642 246.081 78.2642C246.598 78.2642 247.05 78.3703 247.438 78.5824C247.826 78.7912 248.128 79.1094 248.343 79.5369C248.558 79.9612 248.666 80.4981 248.666 81.1477V86H247.493V81.2273C247.493 80.6274 247.337 80.16 247.026 79.8253C246.714 79.4872 246.286 79.3182 245.743 79.3182C245.368 79.3182 245.034 79.3994 244.739 79.5618C244.447 79.7242 244.217 79.9612 244.048 80.2727C243.879 80.5843 243.794 80.9621 243.794 81.4062ZM253.912 86.1591C253.197 86.1591 252.58 85.9901 252.063 85.652C251.546 85.3139 251.148 84.8482 250.87 84.255C250.591 83.6617 250.452 82.9839 250.452 82.2216C250.452 81.446 250.595 80.7616 250.88 80.1683C251.168 79.5717 251.569 79.1061 252.083 78.7713C252.6 78.4332 253.203 78.2642 253.893 78.2642C254.43 78.2642 254.913 78.3636 255.344 78.5625C255.775 78.7614 256.128 79.0398 256.403 79.3977C256.678 79.7557 256.849 80.1733 256.915 80.6506H255.742C255.653 80.3026 255.454 79.9943 255.145 79.7259C254.84 79.4541 254.43 79.3182 253.912 79.3182C253.455 79.3182 253.054 79.4375 252.709 79.6761C252.368 79.9115 252.101 80.2446 251.909 80.6754C251.72 81.103 251.626 81.6051 251.626 82.1818C251.626 82.7718 251.718 83.2855 251.904 83.723C252.093 84.1605 252.358 84.5002 252.699 84.7422C253.044 84.9841 253.448 85.1051 253.912 85.1051C254.217 85.1051 254.494 85.0521 254.743 84.946C254.991 84.84 255.202 84.6875 255.374 84.4886C255.546 84.2898 255.669 84.0511 255.742 83.7727H256.915C256.849 84.2235 256.685 84.6295 256.423 84.9908C256.165 85.3487 255.822 85.6338 255.394 85.8459C254.97 86.0547 254.476 86.1591 253.912 86.1591ZM261.733 86.1591C261.043 86.1591 260.439 85.995 259.918 85.6669C259.401 85.3388 258.997 84.8797 258.705 84.2898C258.417 83.6998 258.273 83.0104 258.273 82.2216C258.273 81.4261 258.417 80.7318 258.705 80.1385C258.997 79.5452 259.401 79.0845 259.918 78.7564C260.439 78.4283 261.043 78.2642 261.733 78.2642C262.422 78.2642 263.025 78.4283 263.542 78.7564C264.063 79.0845 264.467 79.5452 264.756 80.1385C265.047 80.7318 265.193 81.4261 265.193 82.2216C265.193 83.0104 265.047 83.6998 264.756 84.2898C264.467 84.8797 264.063 85.3388 263.542 85.6669C263.025 85.995 262.422 86.1591 261.733 86.1591ZM261.733 85.1051C262.256 85.1051 262.687 84.9709 263.025 84.7024C263.363 84.4339 263.614 84.081 263.776 83.6435C263.939 83.206 264.02 82.732 264.02 82.2216C264.02 81.7112 263.939 81.2356 263.776 80.7947C263.614 80.3539 263.363 79.9976 263.025 79.7259C262.687 79.4541 262.256 79.3182 261.733 79.3182C261.209 79.3182 260.778 79.4541 260.44 79.7259C260.102 79.9976 259.852 80.3539 259.689 80.7947C259.527 81.2356 259.446 81.7112 259.446 82.2216C259.446 82.732 259.527 83.206 259.689 83.6435C259.852 84.081 260.102 84.4339 260.44 84.7024C260.778 84.9709 261.209 85.1051 261.733 85.1051ZM271.797 82.8778V78.3636H272.97V86H271.797V84.7074H271.717C271.538 85.0952 271.26 85.425 270.882 85.6967C270.504 85.9652 270.027 86.0994 269.45 86.0994C268.973 86.0994 268.548 85.995 268.177 85.7862C267.806 85.5741 267.514 85.2559 267.302 84.8317C267.09 84.4041 266.984 83.8655 266.984 83.2159V78.3636H268.157V83.1364C268.157 83.6932 268.313 84.1373 268.625 84.4688C268.94 84.8002 269.341 84.9659 269.828 84.9659C270.119 84.9659 270.416 84.8913 270.718 84.7422C271.023 84.593 271.278 84.3643 271.483 84.0561C271.692 83.7479 271.797 83.3551 271.797 82.8778ZM281.363 78.3636L278.539 86H277.346L274.522 78.3636H275.795L277.903 84.4489H277.982L280.09 78.3636H281.363ZM285.84 86.1591C285.104 86.1591 284.47 85.9967 283.936 85.6719C283.406 85.3438 282.996 84.8864 282.708 84.2997C282.423 83.7098 282.28 83.0237 282.28 82.2415C282.28 81.4593 282.423 80.7699 282.708 80.1733C282.996 79.5734 283.397 79.1061 283.911 78.7713C284.428 78.4332 285.031 78.2642 285.721 78.2642C286.118 78.2642 286.511 78.3305 286.899 78.4631C287.287 78.5956 287.64 78.8111 287.958 79.1094C288.276 79.4044 288.53 79.7955 288.719 80.2827C288.907 80.7699 289.002 81.3698 289.002 82.0824V82.5795H283.116V81.5653H287.809C287.809 81.1345 287.723 80.75 287.55 80.4119C287.381 80.0739 287.139 79.8071 286.824 79.6115C286.513 79.416 286.145 79.3182 285.721 79.3182C285.253 79.3182 284.849 79.4342 284.508 79.6662C284.17 79.8949 283.909 80.1932 283.727 80.5611C283.545 80.929 283.454 81.3234 283.454 81.7443V82.4205C283.454 82.9972 283.553 83.486 283.752 83.8871C283.954 84.2848 284.234 84.5881 284.592 84.7969C284.95 85.0024 285.366 85.1051 285.84 85.1051C286.148 85.1051 286.427 85.062 286.675 84.9759C286.927 84.8864 287.144 84.7538 287.327 84.5781C287.509 84.3991 287.65 84.1771 287.749 83.9119L288.883 84.2301C288.763 84.6146 288.563 84.9527 288.281 85.2443C287.999 85.5327 287.651 85.758 287.237 85.9205C286.823 86.0795 286.357 86.1591 285.84 86.1591ZM290.787 86V78.3636H291.92V79.517H292C292.139 79.1392 292.391 78.8326 292.756 78.5973C293.12 78.362 293.531 78.2443 293.988 78.2443C294.075 78.2443 294.182 78.246 294.312 78.2493C294.441 78.2526 294.539 78.2576 294.605 78.2642V79.4574C294.565 79.4474 294.474 79.4325 294.331 79.4126C294.192 79.3894 294.045 79.3778 293.889 79.3778C293.518 79.3778 293.186 79.4557 292.895 79.6115C292.606 79.764 292.378 79.9761 292.209 80.2479C292.043 80.5163 291.96 80.8229 291.96 81.1676V86H290.787ZM296.871 84.608L296.791 85.1449C296.735 85.5227 296.649 85.9271 296.533 86.358C296.42 86.7888 296.302 87.1948 296.18 87.576C296.057 87.9571 295.956 88.2604 295.876 88.4858H294.982C295.025 88.2737 295.081 87.9936 295.151 87.6456C295.22 87.2976 295.29 86.9081 295.359 86.4773C295.432 86.0497 295.492 85.6122 295.538 85.1648L295.598 84.608H296.871ZM303.141 86V75.8182H306.701C307.41 75.8182 307.995 75.9408 308.456 76.1861C308.916 76.428 309.26 76.7545 309.485 77.1655C309.71 77.5732 309.823 78.0256 309.823 78.5227C309.823 78.9602 309.745 79.3215 309.589 79.6065C309.437 79.8916 309.235 80.117 308.983 80.2827C308.734 80.4484 308.464 80.571 308.172 80.6506V80.75C308.484 80.7699 308.797 80.8793 309.112 81.0781C309.427 81.277 309.69 81.562 309.903 81.9332C310.115 82.3045 310.221 82.7585 310.221 83.2955C310.221 83.8059 310.105 84.2649 309.873 84.6726C309.641 85.0803 309.274 85.4034 308.774 85.642C308.273 85.8807 307.622 86 306.82 86H303.141ZM304.374 84.9062H306.82C307.626 84.9062 308.197 84.7505 308.535 84.4389C308.877 84.1241 309.047 83.7429 309.047 83.2955C309.047 82.9508 308.96 82.6326 308.784 82.3409C308.608 82.0459 308.358 81.8106 308.033 81.6349C307.708 81.456 307.324 81.3665 306.88 81.3665H304.374V84.9062ZM304.374 80.2926H306.661C307.032 80.2926 307.367 80.2197 307.665 80.0739C307.967 79.928 308.206 79.7225 308.381 79.4574C308.56 79.1922 308.65 78.8807 308.65 78.5227C308.65 78.0753 308.494 77.6958 308.182 77.3842C307.871 77.0694 307.377 76.9119 306.701 76.9119H304.374V80.2926ZM320.44 79H319.207C319.134 78.6454 319.006 78.3338 318.824 78.0653C318.645 77.7969 318.426 77.5715 318.168 77.3892C317.913 77.2036 317.629 77.0644 317.318 76.9716C317.006 76.8788 316.681 76.8324 316.343 76.8324C315.727 76.8324 315.168 76.9882 314.668 77.2997C314.171 77.6113 313.775 78.0703 313.48 78.6768C313.188 79.2834 313.042 80.0275 313.042 80.9091C313.042 81.7907 313.188 82.5348 313.48 83.1413C313.775 83.7479 314.171 84.2069 314.668 84.5185C315.168 84.83 315.727 84.9858 316.343 84.9858C316.681 84.9858 317.006 84.9394 317.318 84.8466C317.629 84.7538 317.913 84.6162 318.168 84.4339C318.426 84.2483 318.645 84.0213 318.824 83.7528C319.006 83.4811 319.134 83.1695 319.207 82.8182H320.44C320.347 83.3385 320.178 83.8042 319.933 84.2152C319.687 84.6262 319.383 84.9759 319.018 85.2642C318.653 85.5492 318.244 85.7663 317.79 85.9155C317.339 86.0646 316.857 86.1392 316.343 86.1392C315.475 86.1392 314.703 85.9271 314.026 85.5028C313.35 85.0786 312.818 84.4754 312.431 83.6932C312.043 82.911 311.849 81.983 311.849 80.9091C311.849 79.8352 312.043 78.9072 312.431 78.125C312.818 77.3428 313.35 76.7396 314.026 76.3153C314.703 75.8911 315.475 75.679 316.343 75.679C316.857 75.679 317.339 75.7536 317.79 75.9027C318.244 76.0518 318.653 76.2706 319.018 76.5589C319.383 76.844 319.687 77.192 319.933 77.603C320.178 78.0107 320.347 78.4763 320.44 79Z" fill="#363636"/>
</g>
<g opacity="0.75">
<rect y="125" width="361" height="115" rx="8" fill="#D7EDD2"/>
<rect x="10" y="139" width="88" height="88" rx="8" fill="#278700"/>
<path d="M122.948 187V176.091H130.171V177.993H125.255V180.592H129.692V182.494H125.255V187H122.948ZM136.414 183.516V178.818H138.683V187H136.505V185.514H136.419C136.235 185.993 135.928 186.379 135.498 186.67C135.072 186.961 134.551 187.107 133.937 187.107C133.39 187.107 132.909 186.982 132.494 186.734C132.078 186.485 131.753 186.132 131.519 185.674C131.288 185.216 131.171 184.667 131.167 184.028V178.818H133.436V183.623C133.44 184.106 133.57 184.488 133.825 184.768C134.081 185.049 134.424 185.189 134.853 185.189C135.127 185.189 135.382 185.127 135.62 185.002C135.858 184.875 136.05 184.686 136.196 184.438C136.345 184.189 136.418 183.882 136.414 183.516ZM142.767 182.27V187H140.498V178.818H142.661V180.262H142.757C142.938 179.786 143.242 179.409 143.668 179.132C144.094 178.852 144.611 178.712 145.218 178.712C145.786 178.712 146.281 178.836 146.704 179.085C147.127 179.333 147.455 179.688 147.689 180.15C147.924 180.608 148.041 181.155 148.041 181.79V187H145.772V182.195C145.775 181.695 145.647 181.304 145.388 181.023C145.129 180.739 144.772 180.597 144.318 180.597C144.012 180.597 143.742 180.663 143.508 180.794C143.277 180.926 143.096 181.118 142.965 181.37C142.837 181.618 142.771 181.918 142.767 182.27ZM155.224 187H152.752L156.518 176.091H159.491L163.251 187H160.78L158.047 178.584H157.962L155.224 187ZM155.07 182.712H160.908V184.512H155.07V182.712ZM167.838 187.16C167 187.16 166.279 186.982 165.675 186.627C165.075 186.268 164.613 185.771 164.29 185.136C163.97 184.5 163.811 183.768 163.811 182.941C163.811 182.103 163.972 181.368 164.295 180.736C164.622 180.1 165.085 179.605 165.686 179.25C166.286 178.891 167 178.712 167.827 178.712C168.541 178.712 169.166 178.841 169.702 179.1C170.238 179.36 170.663 179.724 170.975 180.192C171.288 180.661 171.46 181.212 171.492 181.844H169.35C169.29 181.435 169.13 181.107 168.871 180.858C168.615 180.606 168.28 180.48 167.864 180.48C167.513 180.48 167.206 180.576 166.943 180.768C166.684 180.956 166.481 181.231 166.335 181.593C166.19 181.956 166.117 182.394 166.117 182.909C166.117 183.431 166.188 183.875 166.33 184.241C166.476 184.607 166.68 184.885 166.943 185.077C167.206 185.269 167.513 185.365 167.864 185.365C168.123 185.365 168.356 185.311 168.562 185.205C168.772 185.098 168.944 184.944 169.079 184.741C169.217 184.536 169.308 184.289 169.35 184.001H171.492C171.456 184.626 171.286 185.176 170.98 185.652C170.679 186.125 170.261 186.494 169.729 186.76C169.196 187.027 168.566 187.16 167.838 187.16ZM177.297 178.818V180.523H172.369V178.818H177.297ZM173.488 176.858H175.757V184.486C175.757 184.695 175.789 184.859 175.853 184.976C175.917 185.089 176.006 185.169 176.119 185.216C176.237 185.262 176.371 185.285 176.524 185.285C176.631 185.285 176.737 185.276 176.844 185.258C176.95 185.237 177.032 185.221 177.089 185.21L177.446 186.899C177.332 186.934 177.172 186.975 176.966 187.021C176.76 187.071 176.51 187.101 176.215 187.112C175.668 187.133 175.189 187.06 174.777 186.893C174.369 186.727 174.051 186.467 173.824 186.116C173.596 185.764 173.484 185.32 173.488 184.784V176.858ZM178.775 187V178.818H181.044V187H178.775ZM179.915 177.763C179.577 177.763 179.288 177.652 179.046 177.428C178.808 177.201 178.689 176.929 178.689 176.613C178.689 176.3 178.808 176.032 179.046 175.809C179.288 175.581 179.577 175.468 179.915 175.468C180.252 175.468 180.54 175.581 180.778 175.809C181.019 176.032 181.14 176.3 181.14 176.613C181.14 176.929 181.019 177.201 180.778 177.428C180.54 177.652 180.252 177.763 179.915 177.763ZM190.489 178.818L187.629 187H185.072L182.212 178.818H184.609L186.308 184.672H186.393L188.087 178.818H190.489ZM191.651 187V178.818H193.92V187H191.651ZM192.791 177.763C192.453 177.763 192.164 177.652 191.922 177.428C191.684 177.201 191.565 176.929 191.565 176.613C191.565 176.3 191.684 176.032 191.922 175.809C192.164 175.581 192.453 175.468 192.791 175.468C193.128 175.468 193.416 175.581 193.653 175.809C193.895 176.032 194.016 176.3 194.016 176.613C194.016 176.929 193.895 177.201 193.653 177.428C193.416 177.652 193.128 177.763 192.791 177.763ZM200.089 178.818V180.523H195.162V178.818H200.089ZM196.281 176.858H198.55V184.486C198.55 184.695 198.582 184.859 198.646 184.976C198.71 185.089 198.799 185.169 198.912 185.216C199.029 185.262 199.164 185.285 199.317 185.285C199.424 185.285 199.53 185.276 199.637 185.258C199.743 185.237 199.825 185.221 199.882 185.21L200.239 186.899C200.125 186.934 199.965 186.975 199.759 187.021C199.553 187.071 199.303 187.101 199.008 187.112C198.461 187.133 197.982 187.06 197.57 186.893C197.162 186.727 196.844 186.467 196.616 186.116C196.389 185.764 196.277 185.32 196.281 184.784V176.858ZM202.969 190.068C202.681 190.068 202.411 190.045 202.159 189.999C201.91 189.956 201.704 189.901 201.541 189.834L202.052 188.14C202.319 188.222 202.558 188.266 202.771 188.273C202.988 188.28 203.175 188.23 203.331 188.124C203.491 188.017 203.62 187.836 203.72 187.581L203.853 187.234L200.918 178.818H203.304L204.998 184.827H205.083L206.793 178.818H209.195L206.015 187.884C205.863 188.325 205.655 188.708 205.392 189.035C205.133 189.365 204.805 189.619 204.407 189.797C204.009 189.978 203.53 190.068 202.969 190.068Z" fill="#363636"/>
<path d="M123.057 151V142.273H128.324V143.21H124.114V146.159H128.051V147.097H124.114V150.062H128.392V151H123.057ZM130.092 151V144.455H131.064V145.477H131.149C131.286 145.128 131.506 144.857 131.81 144.663C132.114 144.467 132.479 144.369 132.905 144.369C133.337 144.369 133.696 144.467 133.983 144.663C134.273 144.857 134.499 145.128 134.661 145.477H134.729C134.896 145.139 135.148 144.871 135.483 144.672C135.818 144.47 136.22 144.369 136.689 144.369C137.274 144.369 137.753 144.553 138.125 144.919C138.497 145.283 138.683 145.849 138.683 146.619V151H137.678V146.619C137.678 146.136 137.545 145.791 137.281 145.584C137.017 145.376 136.706 145.273 136.348 145.273C135.888 145.273 135.531 145.412 135.278 145.69C135.026 145.966 134.899 146.315 134.899 146.739V151H133.876V146.517C133.876 146.145 133.756 145.845 133.514 145.618C133.273 145.388 132.962 145.273 132.581 145.273C132.32 145.273 132.075 145.342 131.848 145.482C131.624 145.621 131.442 145.814 131.303 146.061C131.166 146.305 131.098 146.588 131.098 146.909V151H130.092ZM140.522 151V144.455H141.494V145.477H141.579C141.715 145.128 141.935 144.857 142.239 144.663C142.543 144.467 142.908 144.369 143.335 144.369C143.766 144.369 144.126 144.467 144.413 144.663C144.702 144.857 144.928 145.128 145.09 145.477H145.158C145.326 145.139 145.577 144.871 145.913 144.672C146.248 144.47 146.65 144.369 147.119 144.369C147.704 144.369 148.183 144.553 148.555 144.919C148.927 145.283 149.113 145.849 149.113 146.619V151H148.107V146.619C148.107 146.136 147.975 145.791 147.711 145.584C147.447 145.376 147.136 145.273 146.778 145.273C146.317 145.273 145.961 145.412 145.708 145.69C145.455 145.966 145.329 146.315 145.329 146.739V151H144.306V146.517C144.306 146.145 144.185 145.845 143.944 145.618C143.702 145.388 143.391 145.273 143.011 145.273C142.749 145.273 142.505 145.342 142.278 145.482C142.053 145.621 141.871 145.814 141.732 146.061C141.596 146.305 141.528 146.588 141.528 146.909V151H140.522ZM152.878 151.153C152.463 151.153 152.087 151.075 151.749 150.919C151.411 150.76 151.142 150.531 150.943 150.233C150.744 149.932 150.645 149.568 150.645 149.142C150.645 148.767 150.719 148.463 150.866 148.23C151.014 147.994 151.212 147.81 151.459 147.676C151.706 147.543 151.979 147.443 152.277 147.378C152.578 147.31 152.881 147.256 153.185 147.216C153.582 147.165 153.905 147.126 154.152 147.101C154.402 147.072 154.584 147.026 154.697 146.96C154.814 146.895 154.872 146.781 154.872 146.619V146.585C154.872 146.165 154.757 145.838 154.527 145.605C154.3 145.372 153.955 145.256 153.491 145.256C153.011 145.256 152.635 145.361 152.362 145.571C152.089 145.781 151.898 146.006 151.787 146.244L150.832 145.903C151.003 145.506 151.23 145.196 151.514 144.974C151.801 144.75 152.114 144.594 152.452 144.506C152.793 144.415 153.128 144.369 153.457 144.369C153.668 144.369 153.909 144.395 154.182 144.446C154.457 144.494 154.723 144.595 154.979 144.749C155.237 144.902 155.452 145.134 155.622 145.443C155.793 145.753 155.878 146.168 155.878 146.688V151H154.872V150.114H154.821C154.753 150.256 154.639 150.408 154.48 150.57C154.321 150.732 154.109 150.869 153.845 150.983C153.581 151.097 153.259 151.153 152.878 151.153ZM153.031 150.25C153.429 150.25 153.764 150.172 154.037 150.016C154.313 149.859 154.52 149.658 154.659 149.411C154.801 149.163 154.872 148.903 154.872 148.631V147.71C154.83 147.761 154.736 147.808 154.591 147.851C154.449 147.891 154.284 147.926 154.097 147.957C153.912 147.986 153.732 148.011 153.555 148.034C153.382 148.054 153.241 148.071 153.134 148.085C152.872 148.119 152.628 148.175 152.401 148.251C152.176 148.325 151.994 148.437 151.855 148.588C151.719 148.736 151.651 148.937 151.651 149.193C151.651 149.543 151.78 149.807 152.038 149.986C152.3 150.162 152.631 150.25 153.031 150.25ZM161.088 153.455V144.455H162.06V145.494H162.179C162.253 145.381 162.355 145.236 162.486 145.06C162.62 144.881 162.81 144.722 163.057 144.582C163.307 144.44 163.645 144.369 164.071 144.369C164.623 144.369 165.108 144.507 165.529 144.783C165.949 145.058 166.277 145.449 166.513 145.955C166.749 146.46 166.867 147.057 166.867 147.744C166.867 148.438 166.749 149.038 166.513 149.547C166.277 150.053 165.951 150.445 165.533 150.723C165.115 150.999 164.634 151.136 164.088 151.136C163.668 151.136 163.331 151.067 163.078 150.928C162.826 150.786 162.631 150.625 162.495 150.446C162.358 150.264 162.253 150.114 162.179 149.994H162.094V153.455H161.088ZM162.077 147.727C162.077 148.222 162.15 148.658 162.294 149.036C162.439 149.411 162.651 149.705 162.929 149.918C163.208 150.128 163.549 150.233 163.952 150.233C164.373 150.233 164.723 150.122 165.005 149.901C165.289 149.676 165.502 149.375 165.644 148.997C165.789 148.616 165.861 148.193 165.861 147.727C165.861 147.267 165.79 146.852 165.648 146.483C165.509 146.111 165.297 145.817 165.013 145.601C164.732 145.382 164.378 145.273 163.952 145.273C163.543 145.273 163.199 145.376 162.921 145.584C162.642 145.788 162.432 146.075 162.29 146.445C162.148 146.811 162.077 147.239 162.077 147.727ZM168.401 151V144.455H169.407V151H168.401ZM168.912 143.364C168.716 143.364 168.547 143.297 168.405 143.163C168.266 143.03 168.196 142.869 168.196 142.682C168.196 142.494 168.266 142.334 168.405 142.2C168.547 142.067 168.716 142 168.912 142C169.108 142 169.276 142.067 169.415 142.2C169.557 142.334 169.628 142.494 169.628 142.682C169.628 142.869 169.557 143.03 169.415 143.163C169.276 143.297 169.108 143.364 168.912 143.364ZM173.908 151.136C173.294 151.136 172.766 150.991 172.322 150.702C171.879 150.412 171.538 150.013 171.3 149.504C171.061 148.996 170.942 148.415 170.942 147.761C170.942 147.097 171.064 146.51 171.308 146.001C171.555 145.49 171.899 145.091 172.339 144.804C172.783 144.514 173.3 144.369 173.891 144.369C174.351 144.369 174.766 144.455 175.135 144.625C175.504 144.795 175.807 145.034 176.043 145.341C176.278 145.648 176.425 146.006 176.482 146.415H175.476C175.399 146.116 175.229 145.852 174.964 145.622C174.703 145.389 174.351 145.273 173.908 145.273C173.516 145.273 173.172 145.375 172.876 145.58C172.584 145.781 172.355 146.067 172.19 146.436C172.028 146.803 171.947 147.233 171.947 147.727C171.947 148.233 172.027 148.673 172.186 149.048C172.348 149.423 172.575 149.714 172.868 149.922C173.163 150.129 173.51 150.233 173.908 150.233C174.169 150.233 174.406 150.188 174.619 150.097C174.832 150.006 175.013 149.875 175.161 149.705C175.308 149.534 175.413 149.33 175.476 149.091H176.482C176.425 149.477 176.284 149.825 176.06 150.135C175.838 150.442 175.544 150.686 175.178 150.868C174.814 151.047 174.391 151.136 173.908 151.136ZM178.889 148.614L178.872 147.369H179.077L181.94 144.455H183.185L180.134 147.54H180.048L178.889 148.614ZM177.952 151V142.273H178.957V151H177.952ZM182.111 151L179.554 147.761L180.27 147.062L183.389 151H182.111ZM186.954 151.136C186.323 151.136 185.779 150.997 185.322 150.719C184.867 150.438 184.516 150.045 184.269 149.543C184.025 149.037 183.903 148.449 183.903 147.778C183.903 147.108 184.025 146.517 184.269 146.006C184.516 145.491 184.86 145.091 185.3 144.804C185.744 144.514 186.261 144.369 186.852 144.369C187.192 144.369 187.529 144.426 187.862 144.54C188.194 144.653 188.496 144.838 188.769 145.094C189.042 145.347 189.259 145.682 189.421 146.099C189.583 146.517 189.664 147.031 189.664 147.642V148.068H184.619V147.199H188.641C188.641 146.83 188.567 146.5 188.42 146.21C188.275 145.92 188.067 145.692 187.798 145.524C187.531 145.357 187.215 145.273 186.852 145.273C186.451 145.273 186.104 145.372 185.812 145.571C185.522 145.767 185.299 146.023 185.143 146.338C184.987 146.653 184.908 146.991 184.908 147.352V147.932C184.908 148.426 184.994 148.845 185.164 149.189C185.337 149.53 185.577 149.79 185.884 149.969C186.191 150.145 186.548 150.233 186.954 150.233C187.218 150.233 187.457 150.196 187.67 150.122C187.886 150.045 188.072 149.932 188.228 149.781C188.384 149.628 188.505 149.437 188.59 149.21L189.562 149.483C189.46 149.812 189.288 150.102 189.046 150.352C188.805 150.599 188.506 150.793 188.151 150.932C187.796 151.068 187.397 151.136 186.954 151.136ZM193.665 151.136C193.12 151.136 192.638 150.999 192.221 150.723C191.803 150.445 191.477 150.053 191.241 149.547C191.005 149.038 190.887 148.438 190.887 147.744C190.887 147.057 191.005 146.46 191.241 145.955C191.477 145.449 191.805 145.058 192.225 144.783C192.646 144.507 193.131 144.369 193.683 144.369C194.109 144.369 194.445 144.44 194.692 144.582C194.942 144.722 195.133 144.881 195.263 145.06C195.397 145.236 195.501 145.381 195.575 145.494H195.66V142.273H196.665V151H195.694V149.994H195.575C195.501 150.114 195.396 150.264 195.259 150.446C195.123 150.625 194.928 150.786 194.675 150.928C194.423 151.067 194.086 151.136 193.665 151.136ZM193.802 150.233C194.205 150.233 194.546 150.128 194.825 149.918C195.103 149.705 195.315 149.411 195.46 149.036C195.604 148.658 195.677 148.222 195.677 147.727C195.677 147.239 195.606 146.811 195.464 146.445C195.322 146.075 195.112 145.788 194.833 145.584C194.555 145.376 194.211 145.273 193.802 145.273C193.376 145.273 193.021 145.382 192.737 145.601C192.455 145.817 192.244 146.111 192.102 146.483C191.962 146.852 191.893 147.267 191.893 147.727C191.893 148.193 191.964 148.616 192.106 148.997C192.251 149.375 192.464 149.676 192.745 149.901C193.029 150.122 193.381 150.233 193.802 150.233Z" fill="#391E99"/>
<path d="M122.815 208.912V207.898L127.29 200.818H128.026V202.389H127.528L124.148 207.739V207.818H130.173V208.912H122.815ZM127.608 211V208.604V208.131V200.818H128.781V211H127.608ZM135.477 211.139C134.82 211.139 134.235 211.027 133.722 210.801C133.211 210.576 132.805 210.263 132.504 209.862C132.205 209.457 132.043 208.988 132.017 208.455H133.269C133.296 208.783 133.409 209.066 133.607 209.305C133.806 209.54 134.066 209.722 134.388 209.852C134.709 209.981 135.066 210.045 135.457 210.045C135.894 210.045 136.282 209.969 136.62 209.817C136.958 209.664 137.223 209.452 137.416 209.18C137.608 208.909 137.704 208.594 137.704 208.236C137.704 207.861 137.611 207.531 137.426 207.246C137.24 206.958 136.968 206.733 136.61 206.57C136.252 206.408 135.815 206.327 135.298 206.327H134.482V205.233H135.298C135.702 205.233 136.057 205.16 136.362 205.014C136.67 204.868 136.91 204.663 137.083 204.398C137.258 204.133 137.346 203.821 137.346 203.463C137.346 203.118 137.27 202.818 137.117 202.563C136.965 202.308 136.749 202.109 136.471 201.967C136.196 201.824 135.871 201.753 135.497 201.753C135.145 201.753 134.814 201.817 134.502 201.947C134.194 202.073 133.942 202.257 133.747 202.499C133.551 202.737 133.445 203.026 133.428 203.364H132.235C132.255 202.83 132.416 202.363 132.718 201.962C133.019 201.557 133.414 201.242 133.901 201.017C134.391 200.792 134.93 200.679 135.517 200.679C136.146 200.679 136.686 200.807 137.137 201.062C137.588 201.314 137.934 201.647 138.176 202.061C138.418 202.475 138.539 202.923 138.539 203.403C138.539 203.977 138.388 204.466 138.087 204.87C137.789 205.274 137.383 205.554 136.869 205.71V205.79C137.512 205.896 138.014 206.169 138.375 206.61C138.736 207.048 138.917 207.589 138.917 208.236C138.917 208.789 138.766 209.286 138.465 209.727C138.166 210.165 137.759 210.509 137.242 210.761C136.725 211.013 136.136 211.139 135.477 211.139ZM140.95 211V210.105L144.311 206.426C144.706 205.995 145.03 205.621 145.286 205.303C145.541 204.981 145.73 204.679 145.852 204.398C145.978 204.113 146.041 203.814 146.041 203.503C146.041 203.145 145.955 202.835 145.783 202.573C145.614 202.311 145.382 202.109 145.087 201.967C144.792 201.824 144.46 201.753 144.093 201.753C143.701 201.753 143.36 201.834 143.068 201.996C142.78 202.156 142.556 202.379 142.397 202.668C142.241 202.956 142.164 203.294 142.164 203.682H140.99C140.99 203.085 141.128 202.562 141.403 202.111C141.678 201.66 142.052 201.309 142.526 201.057C143.004 200.805 143.539 200.679 144.132 200.679C144.729 200.679 145.258 200.805 145.718 201.057C146.179 201.309 146.54 201.648 146.802 202.076C147.064 202.504 147.195 202.979 147.195 203.503C147.195 203.877 147.127 204.244 146.991 204.602C146.858 204.956 146.626 205.352 146.295 205.79C145.967 206.224 145.511 206.754 144.928 207.381L142.641 209.827V209.906H147.374V211H140.95ZM153.007 200.818V211H151.774V202.111H151.714L149.228 203.761V202.509L151.774 200.818H153.007ZM160.051 211V200.818H163.492C164.29 200.818 164.943 200.962 165.45 201.251C165.961 201.536 166.339 201.922 166.584 202.409C166.829 202.896 166.952 203.44 166.952 204.04C166.952 204.64 166.829 205.185 166.584 205.675C166.342 206.166 165.968 206.557 165.46 206.849C164.953 207.137 164.304 207.281 163.512 207.281H161.046V206.188H163.472C164.019 206.188 164.458 206.093 164.789 205.904C165.121 205.715 165.361 205.46 165.51 205.138C165.663 204.814 165.739 204.447 165.739 204.04C165.739 203.632 165.663 203.268 165.51 202.946C165.361 202.625 165.119 202.373 164.784 202.19C164.45 202.005 164.005 201.912 163.452 201.912H161.284V211H160.051ZM168.779 211V203.364H169.952V211H168.779ZM169.376 202.091C169.147 202.091 168.95 202.013 168.784 201.857C168.622 201.701 168.54 201.514 168.54 201.295C168.54 201.077 168.622 200.889 168.784 200.734C168.95 200.578 169.147 200.5 169.376 200.5C169.604 200.5 169.8 200.578 169.962 200.734C170.128 200.889 170.211 201.077 170.211 201.295C170.211 201.514 170.128 201.701 169.962 201.857C169.8 202.013 169.604 202.091 169.376 202.091ZM173.275 206.406V211H172.101V203.364H173.235V204.557H173.334C173.513 204.169 173.785 203.857 174.15 203.622C174.514 203.384 174.985 203.264 175.561 203.264C176.078 203.264 176.531 203.37 176.919 203.582C177.306 203.791 177.608 204.109 177.824 204.537C178.039 204.961 178.147 205.498 178.147 206.148V211H176.973V206.227C176.973 205.627 176.818 205.16 176.506 204.825C176.194 204.487 175.767 204.318 175.223 204.318C174.849 204.318 174.514 204.399 174.219 204.562C173.927 204.724 173.697 204.961 173.528 205.273C173.359 205.584 173.275 205.962 173.275 206.406ZM183.492 211.159C182.757 211.159 182.122 210.997 181.588 210.672C181.058 210.344 180.649 209.886 180.36 209.3C180.075 208.71 179.933 208.024 179.933 207.241C179.933 206.459 180.075 205.77 180.36 205.173C180.649 204.573 181.05 204.106 181.563 203.771C182.08 203.433 182.684 203.264 183.373 203.264C183.771 203.264 184.164 203.33 184.551 203.463C184.939 203.596 185.292 203.811 185.61 204.109C185.928 204.404 186.182 204.795 186.371 205.283C186.56 205.77 186.654 206.37 186.654 207.082V207.58H180.768V206.565H185.461C185.461 206.134 185.375 205.75 185.203 205.412C185.034 205.074 184.792 204.807 184.477 204.612C184.165 204.416 183.797 204.318 183.373 204.318C182.906 204.318 182.501 204.434 182.16 204.666C181.822 204.895 181.562 205.193 181.379 205.561C181.197 205.929 181.106 206.323 181.106 206.744V207.42C181.106 207.997 181.205 208.486 181.404 208.887C181.606 209.285 181.887 209.588 182.244 209.797C182.602 210.002 183.018 210.105 183.492 210.105C183.801 210.105 184.079 210.062 184.328 209.976C184.579 209.886 184.797 209.754 184.979 209.578C185.161 209.399 185.302 209.177 185.401 208.912L186.535 209.23C186.416 209.615 186.215 209.953 185.933 210.244C185.652 210.533 185.304 210.758 184.889 210.92C184.475 211.08 184.009 211.159 183.492 211.159ZM198.104 203.364C198.044 202.86 197.802 202.469 197.378 202.19C196.954 201.912 196.433 201.773 195.817 201.773C195.366 201.773 194.972 201.846 194.634 201.991C194.299 202.137 194.037 202.338 193.848 202.593C193.663 202.848 193.57 203.138 193.57 203.463C193.57 203.735 193.634 203.969 193.764 204.164C193.896 204.356 194.065 204.517 194.271 204.646C194.476 204.772 194.692 204.877 194.917 204.96C195.142 205.039 195.35 205.104 195.539 205.153L196.573 205.432C196.838 205.501 197.133 205.598 197.458 205.72C197.786 205.843 198.099 206.01 198.397 206.222C198.699 206.431 198.947 206.7 199.143 207.028C199.338 207.356 199.436 207.759 199.436 208.236C199.436 208.786 199.292 209.283 199.004 209.727C198.719 210.171 198.301 210.524 197.751 210.786C197.204 211.048 196.539 211.179 195.757 211.179C195.028 211.179 194.397 211.061 193.863 210.826C193.333 210.591 192.915 210.263 192.61 209.842C192.309 209.421 192.138 208.932 192.098 208.375H193.371C193.404 208.759 193.533 209.078 193.759 209.33C193.987 209.578 194.276 209.764 194.624 209.886C194.975 210.006 195.353 210.065 195.757 210.065C196.228 210.065 196.651 209.989 197.025 209.837C197.4 209.681 197.696 209.465 197.915 209.19C198.134 208.912 198.243 208.587 198.243 208.216C198.243 207.878 198.149 207.603 197.96 207.391C197.771 207.179 197.522 207.006 197.214 206.874C196.906 206.741 196.573 206.625 196.215 206.526L194.962 206.168C194.166 205.939 193.537 205.612 193.073 205.188C192.609 204.764 192.377 204.209 192.377 203.523C192.377 202.953 192.531 202.455 192.839 202.031C193.151 201.604 193.568 201.272 194.092 201.037C194.619 200.798 195.207 200.679 195.857 200.679C196.513 200.679 197.096 200.797 197.607 201.032C198.117 201.264 198.521 201.582 198.82 201.987C199.121 202.391 199.28 202.85 199.297 203.364H198.104ZM204.625 203.364V204.358H200.668V203.364H204.625ZM201.821 201.534H202.995V208.812C202.995 209.144 203.043 209.393 203.139 209.558C203.238 209.721 203.364 209.83 203.517 209.886C203.672 209.939 203.837 209.966 204.009 209.966C204.138 209.966 204.244 209.959 204.327 209.946C204.41 209.929 204.476 209.916 204.526 209.906L204.765 210.96C204.685 210.99 204.574 211.02 204.431 211.05C204.289 211.083 204.108 211.099 203.89 211.099C203.558 211.099 203.233 211.028 202.915 210.886C202.6 210.743 202.338 210.526 202.13 210.234C201.924 209.943 201.821 209.575 201.821 209.131V201.534ZM207.245 211.08C207 211.08 206.79 210.992 206.614 210.816C206.438 210.64 206.35 210.43 206.35 210.185C206.35 209.939 206.438 209.729 206.614 209.553C206.79 209.378 207 209.29 207.245 209.29C207.491 209.29 207.701 209.378 207.877 209.553C208.052 209.729 208.14 209.939 208.14 210.185C208.14 210.347 208.099 210.496 208.016 210.632C207.936 210.768 207.829 210.877 207.693 210.96C207.56 211.04 207.411 211.08 207.245 211.08ZM214.76 200.818L217.783 209.389H217.902L220.925 200.818H222.217L218.479 211H217.206L213.467 200.818H214.76ZM225.18 211.179C224.696 211.179 224.257 211.088 223.863 210.906C223.469 210.72 223.155 210.453 222.923 210.105C222.691 209.754 222.575 209.33 222.575 208.832C222.575 208.395 222.661 208.04 222.834 207.768C223.006 207.493 223.237 207.278 223.525 207.122C223.813 206.966 224.131 206.85 224.479 206.774C224.831 206.695 225.184 206.632 225.538 206.585C226.002 206.526 226.379 206.481 226.667 206.451C226.959 206.418 227.171 206.363 227.303 206.287C227.439 206.211 227.507 206.078 227.507 205.889V205.849C227.507 205.359 227.373 204.978 227.104 204.706C226.839 204.434 226.437 204.298 225.896 204.298C225.336 204.298 224.897 204.421 224.579 204.666C224.261 204.911 224.037 205.173 223.908 205.452L222.794 205.054C222.993 204.59 223.258 204.229 223.589 203.97C223.924 203.708 224.289 203.526 224.683 203.423C225.081 203.317 225.472 203.264 225.857 203.264C226.102 203.264 226.384 203.294 226.702 203.354C227.023 203.41 227.333 203.528 227.631 203.707C227.933 203.886 228.183 204.156 228.382 204.517C228.581 204.878 228.68 205.362 228.68 205.969V211H227.507V209.966H227.447C227.368 210.132 227.235 210.309 227.05 210.498C226.864 210.687 226.617 210.848 226.309 210.98C226.001 211.113 225.625 211.179 225.18 211.179ZM225.359 210.125C225.823 210.125 226.214 210.034 226.533 209.852C226.854 209.669 227.096 209.434 227.259 209.146C227.424 208.857 227.507 208.554 227.507 208.236V207.162C227.457 207.222 227.348 207.276 227.179 207.326C227.013 207.372 226.821 207.414 226.602 207.45C226.387 207.483 226.176 207.513 225.971 207.54C225.769 207.563 225.605 207.583 225.479 207.599C225.174 207.639 224.889 207.704 224.624 207.793C224.362 207.879 224.15 208.01 223.987 208.186C223.828 208.358 223.749 208.594 223.749 208.892C223.749 209.3 223.899 209.608 224.201 209.817C224.506 210.022 224.892 210.125 225.359 210.125ZM231.995 206.406V211H230.822V203.364H231.955V204.557H232.055C232.234 204.169 232.506 203.857 232.87 203.622C233.235 203.384 233.705 203.264 234.282 203.264C234.799 203.264 235.252 203.37 235.639 203.582C236.027 203.791 236.329 204.109 236.544 204.537C236.76 204.961 236.867 205.498 236.867 206.148V211H235.694V206.227C235.694 205.627 235.538 205.16 235.227 204.825C234.915 204.487 234.488 204.318 233.944 204.318C233.57 204.318 233.235 204.399 232.94 204.562C232.648 204.724 232.418 204.961 232.249 205.273C232.08 205.584 231.995 205.962 231.995 206.406ZM242.114 211.159C241.398 211.159 240.781 210.99 240.264 210.652C239.747 210.314 239.349 209.848 239.071 209.255C238.793 208.662 238.653 207.984 238.653 207.222C238.653 206.446 238.796 205.762 239.081 205.168C239.369 204.572 239.77 204.106 240.284 203.771C240.801 203.433 241.404 203.264 242.094 203.264C242.631 203.264 243.115 203.364 243.545 203.562C243.976 203.761 244.329 204.04 244.604 204.398C244.879 204.756 245.05 205.173 245.116 205.651H243.943C243.854 205.303 243.655 204.994 243.347 204.726C243.042 204.454 242.631 204.318 242.114 204.318C241.656 204.318 241.255 204.437 240.911 204.676C240.569 204.911 240.302 205.245 240.11 205.675C239.921 206.103 239.827 206.605 239.827 207.182C239.827 207.772 239.92 208.286 240.105 208.723C240.294 209.161 240.559 209.5 240.901 209.742C241.245 209.984 241.65 210.105 242.114 210.105C242.419 210.105 242.695 210.052 242.944 209.946C243.192 209.84 243.403 209.688 243.575 209.489C243.748 209.29 243.87 209.051 243.943 208.773H245.116C245.05 209.223 244.886 209.629 244.624 209.991C244.366 210.349 244.023 210.634 243.595 210.846C243.171 211.055 242.677 211.159 242.114 211.159ZM249.934 211.159C249.245 211.159 248.64 210.995 248.119 210.667C247.602 210.339 247.198 209.88 246.906 209.29C246.618 208.7 246.474 208.01 246.474 207.222C246.474 206.426 246.618 205.732 246.906 205.138C247.198 204.545 247.602 204.085 248.119 203.756C248.64 203.428 249.245 203.264 249.934 203.264C250.623 203.264 251.227 203.428 251.744 203.756C252.264 204.085 252.668 204.545 252.957 205.138C253.248 205.732 253.394 206.426 253.394 207.222C253.394 208.01 253.248 208.7 252.957 209.29C252.668 209.88 252.264 210.339 251.744 210.667C251.227 210.995 250.623 211.159 249.934 211.159ZM249.934 210.105C250.458 210.105 250.888 209.971 251.227 209.702C251.565 209.434 251.815 209.081 251.977 208.643C252.14 208.206 252.221 207.732 252.221 207.222C252.221 206.711 252.14 206.236 251.977 205.795C251.815 205.354 251.565 204.998 251.227 204.726C250.888 204.454 250.458 204.318 249.934 204.318C249.41 204.318 248.979 204.454 248.641 204.726C248.303 204.998 248.053 205.354 247.891 205.795C247.728 206.236 247.647 206.711 247.647 207.222C247.647 207.732 247.728 208.206 247.891 208.643C248.053 209.081 248.303 209.434 248.641 209.702C248.979 209.971 249.41 210.105 249.934 210.105ZM259.998 207.878V203.364H261.171V211H259.998V209.707H259.918C259.739 210.095 259.461 210.425 259.083 210.697C258.705 210.965 258.228 211.099 257.651 211.099C257.174 211.099 256.75 210.995 256.378 210.786C256.007 210.574 255.715 210.256 255.503 209.832C255.291 209.404 255.185 208.866 255.185 208.216V203.364H256.358V208.136C256.358 208.693 256.514 209.137 256.826 209.469C257.141 209.8 257.542 209.966 258.029 209.966C258.321 209.966 258.617 209.891 258.919 209.742C259.224 209.593 259.479 209.364 259.684 209.056C259.893 208.748 259.998 208.355 259.998 207.878ZM269.564 203.364L266.74 211H265.547L262.723 203.364H263.996L266.104 209.449H266.184L268.292 203.364H269.564ZM274.041 211.159C273.305 211.159 272.671 210.997 272.137 210.672C271.607 210.344 271.197 209.886 270.909 209.3C270.624 208.71 270.482 208.024 270.482 207.241C270.482 206.459 270.624 205.77 270.909 205.173C271.197 204.573 271.598 204.106 272.112 203.771C272.629 203.433 273.232 203.264 273.922 203.264C274.32 203.264 274.712 203.33 275.1 203.463C275.488 203.596 275.841 203.811 276.159 204.109C276.477 204.404 276.731 204.795 276.92 205.283C277.109 205.77 277.203 206.37 277.203 207.082V207.58H271.317V206.565H276.01C276.01 206.134 275.924 205.75 275.751 205.412C275.582 205.074 275.34 204.807 275.026 204.612C274.714 204.416 274.346 204.318 273.922 204.318C273.455 204.318 273.05 204.434 272.709 204.666C272.371 204.895 272.111 205.193 271.928 205.561C271.746 205.929 271.655 206.323 271.655 206.744V207.42C271.655 207.997 271.754 208.486 271.953 208.887C272.155 209.285 272.435 209.588 272.793 209.797C273.151 210.002 273.567 210.105 274.041 210.105C274.349 210.105 274.628 210.062 274.876 209.976C275.128 209.886 275.345 209.754 275.528 209.578C275.71 209.399 275.851 209.177 275.95 208.912L277.084 209.23C276.964 209.615 276.764 209.953 276.482 210.244C276.201 210.533 275.853 210.758 275.438 210.92C275.024 211.08 274.558 211.159 274.041 211.159ZM278.988 211V203.364H280.121V204.517H280.201C280.34 204.139 280.592 203.833 280.957 203.597C281.321 203.362 281.732 203.244 282.19 203.244C282.276 203.244 282.384 203.246 282.513 203.249C282.642 203.253 282.74 203.258 282.806 203.264V204.457C282.766 204.447 282.675 204.433 282.533 204.413C282.393 204.389 282.246 204.378 282.09 204.378C281.719 204.378 281.388 204.456 281.096 204.612C280.808 204.764 280.579 204.976 280.41 205.248C280.244 205.516 280.161 205.823 280.161 206.168V211H278.988ZM285.072 209.608L284.992 210.145C284.936 210.523 284.85 210.927 284.734 211.358C284.621 211.789 284.503 212.195 284.381 212.576C284.258 212.957 284.157 213.26 284.078 213.486H283.183C283.226 213.274 283.282 212.994 283.352 212.646C283.421 212.298 283.491 211.908 283.561 211.477C283.633 211.05 283.693 210.612 283.74 210.165L283.799 209.608H285.072ZM291.342 211V200.818H294.902C295.611 200.818 296.196 200.941 296.657 201.186C297.118 201.428 297.461 201.754 297.686 202.165C297.911 202.573 298.024 203.026 298.024 203.523C298.024 203.96 297.946 204.321 297.79 204.607C297.638 204.892 297.436 205.117 297.184 205.283C296.935 205.448 296.665 205.571 296.374 205.651V205.75C296.685 205.77 296.998 205.879 297.313 206.078C297.628 206.277 297.892 206.562 298.104 206.933C298.316 207.304 298.422 207.759 298.422 208.295C298.422 208.806 298.306 209.265 298.074 209.673C297.842 210.08 297.476 210.403 296.975 210.642C296.475 210.881 295.823 211 295.021 211H291.342ZM292.575 209.906H295.021C295.827 209.906 296.398 209.75 296.737 209.439C297.078 209.124 297.249 208.743 297.249 208.295C297.249 207.951 297.161 207.633 296.985 207.341C296.809 207.046 296.559 206.811 296.234 206.635C295.91 206.456 295.525 206.366 295.081 206.366H292.575V209.906ZM292.575 205.293H294.862C295.233 205.293 295.568 205.22 295.866 205.074C296.168 204.928 296.407 204.723 296.582 204.457C296.761 204.192 296.851 203.881 296.851 203.523C296.851 203.075 296.695 202.696 296.384 202.384C296.072 202.069 295.578 201.912 294.902 201.912H292.575V205.293ZM303.391 211.159C302.675 211.159 302.059 210.99 301.542 210.652C301.025 210.314 300.627 209.848 300.348 209.255C300.07 208.662 299.931 207.984 299.931 207.222C299.931 206.446 300.073 205.762 300.358 205.168C300.647 204.572 301.048 204.106 301.561 203.771C302.078 203.433 302.682 203.264 303.371 203.264C303.908 203.264 304.392 203.364 304.823 203.562C305.254 203.761 305.607 204.04 305.882 204.398C306.157 204.756 306.328 205.173 306.394 205.651H305.221C305.131 205.303 304.932 204.994 304.624 204.726C304.319 204.454 303.908 204.318 303.391 204.318C302.934 204.318 302.533 204.437 302.188 204.676C301.846 204.911 301.58 205.245 301.387 205.675C301.199 206.103 301.104 206.605 301.104 207.182C301.104 207.772 301.197 208.286 301.382 208.723C301.571 209.161 301.837 209.5 302.178 209.742C302.523 209.984 302.927 210.105 303.391 210.105C303.696 210.105 303.973 210.052 304.221 209.946C304.47 209.84 304.68 209.688 304.853 209.489C305.025 209.29 305.148 209.051 305.221 208.773H306.394C306.328 209.223 306.163 209.629 305.902 209.991C305.643 210.349 305.3 210.634 304.873 210.846C304.448 211.055 303.954 211.159 303.391 211.159ZM308.964 211.08C308.719 211.08 308.508 210.992 308.333 210.816C308.157 210.64 308.069 210.43 308.069 210.185C308.069 209.939 308.157 209.729 308.333 209.553C308.508 209.378 308.719 209.29 308.964 209.29C309.209 209.29 309.42 209.378 309.596 209.553C309.771 209.729 309.859 209.939 309.859 210.185C309.859 210.347 309.818 210.496 309.735 210.632C309.655 210.768 309.547 210.877 309.412 210.96C309.279 211.04 309.13 211.08 308.964 211.08Z" fill="#363636"/>
</g>
<circle cx="235.498" cy="259.743" r="87.4978" fill="#FF82BC"/>
<circle cx="216.8" cy="224.265" r="5.51356" fill="black"/>
<circle cx="251.799" cy="224.265" r="5.51356" fill="black"/>
<path d="M224.71 238.407C227.45 239.854 235.121 241.88 243.888 238.407" stroke="black" stroke-width="3.83552" stroke-linecap="round"/>
<ellipse cx="133" cy="292.5" rx="48" ry="54.5" fill="#391E99"/>
<circle cx="119.315" cy="283.315" r="4.07524" fill="white" stroke="white" stroke-width="0.47944"/>
<path d="M147.362 279.239C149.758 279.239 151.678 281.077 151.678 283.315C151.677 285.554 149.758 287.391 147.362 287.391C144.967 287.391 143.047 285.554 143.047 283.315C143.047 281.077 144.967 279.239 147.362 279.239Z" fill="white" stroke="white" stroke-width="0.47944"/>
<path d="M129.863 291.466C130.822 292.551 133.507 294.071 136.575 291.466" stroke="white" stroke-width="3.83552" stroke-linecap="round"/>
</svg>
