<svg width="393" height="1381" viewBox="0 0 393 1381" fill="none" xmlns="http://www.w3.org/2000/svg">
<path d="M197 0C329.548 0 437 107.452 437 240C437 290.98 421.104 338.246 394 377.115V1395H0V377.115C-27.1042 338.246 -43 290.98 -43 240C-43 107.452 64.4517 0 197 0Z" fill="url(#paint0_linear_3255_7635)"/>
<circle cx="156.778" cy="87.7777" r="12.7777" fill="black"/>
<circle cx="237.891" cy="87.7777" r="12.7777" fill="black"/>
<path d="M175.109 120.556C181.459 123.91 199.236 128.605 219.553 120.556" stroke="black" stroke-width="8" stroke-linecap="round"/>
<circle cx="196.5" cy="791.5" r="267.5" fill="url(#paint1_linear_3255_7635)"/>
<circle cx="196.5" cy="1162.5" r="326.5" fill="url(#paint2_linear_3255_7635)"/>
<defs>
<linearGradient id="paint0_linear_3255_7635" x1="197" y1="0" x2="197" y2="1129" gradientUnits="userSpaceOnUse">
<stop offset="0.197115" stop-color="#FFD147"/>
<stop offset="0.721154" stop-color="#FFF3CF"/>
</linearGradient>
<linearGradient id="paint1_linear_3255_7635" x1="196.5" y1="524" x2="196.5" y2="1059" gradientUnits="userSpaceOnUse">
<stop stop-color="#FF82BC"/>
<stop offset="1" stop-color="#FFE0EE"/>
</linearGradient>
<linearGradient id="paint2_linear_3255_7635" x1="196.5" y1="836" x2="196.5" y2="1489" gradientUnits="userSpaceOnUse">
<stop offset="0.701923" stop-color="#391E99"/>
<stop offset="0.942308" stop-color="#D6D1EA"/>
</linearGradient>
</defs>
</svg>
