<svg width="393" height="316" viewBox="0 0 393 316" fill="none" xmlns="http://www.w3.org/2000/svg">
<circle cx="349.5" cy="113.5" r="15" fill="#4F6DFF" stroke="#4F6DFF" stroke-width="3"/>
<path d="M77.8789 30H79.3438L81.8906 36.2187H81.9844L84.5313 30H85.9961V38H84.8477V32.2109H84.7734L82.4141 37.9883H81.4609L79.1016 32.207H79.0273V38H77.8789V30ZM90.1846 38.1211C89.6221 38.1211 89.1312 37.9922 88.7119 37.7344C88.2926 37.4766 87.9671 37.1159 87.7354 36.6523C87.5036 36.1888 87.3877 35.6471 87.3877 35.0273C87.3877 34.4049 87.5036 33.8607 87.7354 33.3945C87.9671 32.9284 88.2926 32.5664 88.7119 32.3086C89.1312 32.0508 89.6221 31.9219 90.1846 31.9219C90.7471 31.9219 91.238 32.0508 91.6572 32.3086C92.0765 32.5664 92.402 32.9284 92.6338 33.3945C92.8656 33.8607 92.9814 34.4049 92.9814 35.0273C92.9814 35.6471 92.8656 36.1888 92.6338 36.6523C92.402 37.1159 92.0765 37.4766 91.6572 37.7344C91.238 37.9922 90.7471 38.1211 90.1846 38.1211ZM90.1885 37.1406C90.5531 37.1406 90.8551 37.0443 91.0947 36.8516C91.3343 36.6589 91.5114 36.4023 91.626 36.082C91.7432 35.7617 91.8018 35.4089 91.8018 35.0234C91.8018 34.6406 91.7432 34.2891 91.626 33.9687C91.5114 33.6458 91.3343 33.3867 91.0947 33.1914C90.8551 32.9961 90.5531 32.8984 90.1885 32.8984C89.8213 32.8984 89.5166 32.9961 89.2744 33.1914C89.0348 33.3867 88.8564 33.6458 88.7393 33.9687C88.6247 34.2891 88.5674 34.6406 88.5674 35.0234C88.5674 35.4089 88.6247 35.7617 88.7393 36.082C88.8564 36.4023 89.0348 36.6589 89.2744 36.8516C89.5166 37.0443 89.8213 37.1406 90.1885 37.1406ZM95.4531 34.4375V38H94.2852V32H95.4062V32.9766H95.4805C95.6185 32.6589 95.8346 32.4036 96.1289 32.2109C96.4258 32.0182 96.7995 31.9219 97.25 31.9219C97.6589 31.9219 98.0169 32.0078 98.3242 32.1797C98.6315 32.349 98.8698 32.6016 99.0391 32.9375C99.2083 33.2734 99.293 33.6888 99.293 34.1836V38H98.125V34.3242C98.125 33.8893 98.0117 33.5495 97.7852 33.3047C97.5586 33.0573 97.2474 32.9336 96.8516 32.9336C96.5807 32.9336 96.3398 32.9922 96.1289 33.1094C95.9206 33.2266 95.7552 33.3984 95.6328 33.625C95.513 33.849 95.4531 34.1198 95.4531 34.4375Z" fill="#363636"/>
<path d="M133.484 31.0391V30H139.676V31.0391H137.18V38H135.977V31.0391H133.484ZM143.935 35.5117V32H145.106V38H143.958V36.9609H143.896C143.757 37.2813 143.536 37.5482 143.231 37.7617C142.929 37.9727 142.553 38.0781 142.103 38.0781C141.717 38.0781 141.376 37.9935 141.079 37.8242C140.785 37.6523 140.553 37.3984 140.384 37.0625C140.217 36.7266 140.134 36.3112 140.134 35.8164V32H141.302V35.6758C141.302 36.0846 141.415 36.4102 141.642 36.6523C141.868 36.8945 142.162 37.0156 142.524 37.0156C142.743 37.0156 142.961 36.9609 143.177 36.8516C143.396 36.7422 143.576 36.5768 143.72 36.3555C143.866 36.1341 143.937 35.8529 143.935 35.5117ZM149.262 38.1211C148.671 38.1211 148.161 37.9948 147.734 37.7422C147.31 37.487 146.982 37.1289 146.75 36.668C146.521 36.2044 146.406 35.6615 146.406 35.0391C146.406 34.4245 146.521 33.8828 146.75 33.4141C146.982 32.9453 147.305 32.5794 147.719 32.3164C148.135 32.0534 148.622 31.9219 149.18 31.9219C149.518 31.9219 149.846 31.9779 150.164 32.0898C150.482 32.2018 150.767 32.3776 151.02 32.6172C151.272 32.8568 151.471 33.168 151.617 33.5508C151.763 33.931 151.836 34.3932 151.836 34.9375V35.3516H147.066V34.4766H150.691C150.691 34.1693 150.629 33.8971 150.504 33.6602C150.379 33.4206 150.203 33.2318 149.977 33.0937C149.753 32.9557 149.49 32.8867 149.187 32.8867C148.859 32.8867 148.573 32.9674 148.328 33.1289C148.086 33.2878 147.898 33.4961 147.766 33.7539C147.635 34.0091 147.57 34.2865 147.57 34.5859V35.2695C147.57 35.6706 147.641 36.0117 147.781 36.293C147.924 36.5742 148.124 36.7891 148.379 36.9375C148.634 37.0833 148.932 37.1562 149.273 37.1562C149.495 37.1562 149.697 37.125 149.879 37.0625C150.061 36.9974 150.219 36.901 150.352 36.7734C150.484 36.6458 150.586 36.4883 150.656 36.3008L151.762 36.5C151.673 36.8255 151.514 37.1107 151.285 37.3555C151.059 37.5977 150.773 37.7865 150.43 37.9219C150.089 38.0547 149.699 38.1211 149.262 38.1211Z" fill="#363636"/>
<path d="M187.445 38L185.227 30H186.496L188.055 36.1953H188.129L189.75 30H191.008L192.629 36.1992H192.703L194.258 30H195.531L193.309 38H192.094L190.41 32.0078H190.348L188.664 38H187.445ZM198.533 38.1211C197.942 38.1211 197.433 37.9948 197.006 37.7422C196.581 37.487 196.253 37.1289 196.021 36.668C195.792 36.2044 195.678 35.6615 195.678 35.0391C195.678 34.4245 195.792 33.8828 196.021 33.4141C196.253 32.9453 196.576 32.5794 196.99 32.3164C197.407 32.0534 197.894 31.9219 198.451 31.9219C198.79 31.9219 199.118 31.9779 199.436 32.0898C199.753 32.2018 200.038 32.3776 200.291 32.6172C200.544 32.8568 200.743 33.168 200.889 33.5508C201.035 33.931 201.107 34.3932 201.107 34.9375V35.3516H196.338V34.4766H199.963C199.963 34.1693 199.9 33.8971 199.775 33.6602C199.65 33.4206 199.475 33.2318 199.248 33.0937C199.024 32.9557 198.761 32.8867 198.459 32.8867C198.131 32.8867 197.844 32.9674 197.6 33.1289C197.357 33.2878 197.17 33.4961 197.037 33.7539C196.907 34.0091 196.842 34.2865 196.842 34.5859V35.2695C196.842 35.6706 196.912 36.0117 197.053 36.293C197.196 36.5742 197.395 36.7891 197.65 36.9375C197.906 37.0833 198.204 37.1562 198.545 37.1562C198.766 37.1562 198.968 37.125 199.15 37.0625C199.333 36.9974 199.49 36.901 199.623 36.7734C199.756 36.6458 199.857 36.4883 199.928 36.3008L201.033 36.5C200.945 36.8255 200.786 37.1107 200.557 37.3555C200.33 37.5977 200.045 37.7865 199.701 37.9219C199.36 38.0547 198.971 38.1211 198.533 38.1211ZM204.649 38.1172C204.165 38.1172 203.733 37.9935 203.353 37.7461C202.975 37.4961 202.678 37.1406 202.462 36.6797C202.248 36.2161 202.142 35.6602 202.142 35.0117C202.142 34.3633 202.25 33.8086 202.466 33.3477C202.685 32.8867 202.984 32.5339 203.364 32.2891C203.744 32.0443 204.175 31.9219 204.657 31.9219C205.03 31.9219 205.329 31.9844 205.556 32.1094C205.785 32.2318 205.962 32.375 206.087 32.5391C206.215 32.7031 206.313 32.8477 206.384 32.9727H206.454V30H207.622V38H206.481V37.0664H206.384C206.313 37.194 206.212 37.3398 206.079 37.5039C205.949 37.668 205.769 37.8112 205.54 37.9336C205.311 38.056 205.014 38.1172 204.649 38.1172ZM204.907 37.1211C205.243 37.1211 205.527 37.0326 205.759 36.8555C205.993 36.6758 206.17 36.4271 206.29 36.1094C206.412 35.7917 206.474 35.4219 206.474 35C206.474 34.5833 206.414 34.2187 206.294 33.9062C206.174 33.5937 205.998 33.3503 205.767 33.1758C205.535 33.0013 205.248 32.9141 204.907 32.9141C204.556 32.9141 204.263 33.0052 204.028 33.1875C203.794 33.3698 203.617 33.6185 203.497 33.9336C203.38 34.2487 203.321 34.6042 203.321 35C203.321 35.401 203.381 35.7617 203.501 36.082C203.621 36.4023 203.798 36.6562 204.032 36.8437C204.269 37.0286 204.561 37.1211 204.907 37.1211Z" fill="#363636"/>
<path d="M241.484 31.0391V30H247.676V31.0391H245.18V38H243.977V31.0391H241.484ZM250.118 34.4375V38H248.95V30H250.103V32.9766H250.177C250.317 32.6536 250.532 32.3971 250.821 32.207C251.11 32.0169 251.488 31.9219 251.954 31.9219C252.366 31.9219 252.725 32.0065 253.032 32.1758C253.342 32.3451 253.582 32.5977 253.751 32.9336C253.923 33.2669 254.009 33.6836 254.009 34.1836V38H252.841V34.3242C252.841 33.8841 252.728 33.543 252.501 33.3008C252.274 33.056 251.959 32.9336 251.556 32.9336C251.28 32.9336 251.032 32.9922 250.813 33.1094C250.597 33.2266 250.427 33.3984 250.302 33.625C250.179 33.849 250.118 34.1198 250.118 34.4375ZM259.368 35.5117V32H260.54V38H259.392V36.9609H259.329C259.191 37.2813 258.97 37.5482 258.665 37.7617C258.363 37.9727 257.987 38.0781 257.536 38.0781C257.151 38.0781 256.81 37.9935 256.513 37.8242C256.218 37.6523 255.987 37.3984 255.817 37.0625C255.651 36.7266 255.567 36.3112 255.567 35.8164V32H256.735V35.6758C256.735 36.0846 256.849 36.4102 257.075 36.6523C257.302 36.8945 257.596 37.0156 257.958 37.0156C258.177 37.0156 258.394 36.9609 258.61 36.8516C258.829 36.7422 259.01 36.5768 259.153 36.3555C259.299 36.1341 259.371 35.8529 259.368 35.5117Z" fill="#363636"/>
<path d="M294.879 38V30H299.84V31.0391H296.086V33.4766H299.484V34.5117H296.086V38H294.879ZM301.155 38V32H302.284V32.9531H302.347C302.456 32.6302 302.649 32.3763 302.925 32.1914C303.203 32.0039 303.519 31.9102 303.87 31.9102C303.943 31.9102 304.029 31.9128 304.128 31.918C304.229 31.9232 304.309 31.9297 304.366 31.9375V33.0547C304.319 33.0417 304.236 33.0273 304.116 33.0117C303.996 32.9935 303.877 32.9844 303.757 32.9844C303.481 32.9844 303.235 33.043 303.019 33.1602C302.805 33.2747 302.636 33.4349 302.511 33.6406C302.386 33.8437 302.323 34.0755 302.323 34.3359V38H301.155ZM305.377 38V32H306.545V38H305.377ZM305.967 31.0742C305.764 31.0742 305.589 31.0065 305.443 30.8711C305.3 30.7331 305.229 30.569 305.229 30.3789C305.229 30.1862 305.3 30.0221 305.443 29.8867C305.589 29.7487 305.764 29.6797 305.967 29.6797C306.17 29.6797 306.343 29.7487 306.486 29.8867C306.632 30.0221 306.705 30.1862 306.705 30.3789C306.705 30.569 306.632 30.7331 306.486 30.8711C306.343 31.0065 306.17 31.0742 305.967 31.0742Z" fill="#363636"/>
<path d="M345.242 32.1016C345.201 31.7318 345.029 31.4453 344.727 31.2422C344.424 31.0365 344.044 30.9336 343.586 30.9336C343.258 30.9336 342.974 30.9857 342.734 31.0898C342.495 31.1914 342.309 31.332 342.176 31.5117C342.046 31.6888 341.98 31.8906 341.98 32.1172C341.98 32.3073 342.025 32.4714 342.113 32.6094C342.204 32.7474 342.323 32.8633 342.469 32.957C342.617 33.0482 342.776 33.125 342.945 33.1875C343.115 33.2474 343.277 33.2969 343.434 33.3359L344.215 33.5391C344.47 33.6016 344.732 33.6862 345 33.793C345.268 33.8997 345.517 34.0404 345.746 34.2148C345.975 34.3893 346.16 34.6055 346.301 34.8633C346.444 35.1211 346.516 35.4297 346.516 35.7891C346.516 36.2422 346.398 36.6445 346.164 36.9961C345.932 37.3477 345.595 37.625 345.152 37.8281C344.712 38.0313 344.18 38.1328 343.555 38.1328C342.956 38.1328 342.438 38.0378 342 37.8477C341.563 37.6576 341.22 37.388 340.973 37.0391C340.725 36.6875 340.589 36.2708 340.563 35.7891H341.773C341.797 36.0781 341.891 36.319 342.055 36.5117C342.221 36.7018 342.434 36.8437 342.691 36.9375C342.952 37.0286 343.237 37.0742 343.547 37.0742C343.888 37.0742 344.191 37.0208 344.457 36.9141C344.725 36.8047 344.936 36.6536 345.09 36.4609C345.243 36.2656 345.32 36.0378 345.32 35.7773C345.32 35.5404 345.253 35.3464 345.117 35.1953C344.984 35.0443 344.803 34.9193 344.574 34.8203C344.348 34.7214 344.091 34.6341 343.805 34.5586L342.859 34.3008C342.219 34.1263 341.711 33.8698 341.336 33.5312C340.964 33.1927 340.777 32.7448 340.777 32.1875C340.777 31.7266 340.902 31.3242 341.152 30.9805C341.402 30.6367 341.741 30.3698 342.168 30.1797C342.595 29.987 343.077 29.8906 343.613 29.8906C344.155 29.8906 344.633 29.9857 345.047 30.1758C345.464 30.3659 345.792 30.6276 346.031 30.9609C346.271 31.2917 346.396 31.6719 346.406 32.1016H345.242ZM349.61 38.1328C349.23 38.1328 348.886 38.0625 348.579 37.9219C348.272 37.7786 348.028 37.5716 347.849 37.3008C347.672 37.0299 347.583 36.6979 347.583 36.3047C347.583 35.9661 347.648 35.6875 347.778 35.4687C347.909 35.25 348.084 35.0768 348.306 34.9492C348.527 34.8216 348.774 34.7253 349.048 34.6602C349.321 34.5951 349.6 34.5456 349.884 34.5117C350.243 34.4701 350.535 34.4362 350.759 34.4102C350.983 34.3815 351.146 34.3359 351.247 34.2734C351.349 34.2109 351.399 34.1094 351.399 33.9687V33.9414C351.399 33.6003 351.303 33.3359 351.11 33.1484C350.92 32.9609 350.636 32.8672 350.259 32.8672C349.866 32.8672 349.556 32.9544 349.329 33.1289C349.105 33.3008 348.95 33.4922 348.864 33.7031L347.767 33.4531C347.897 33.0885 348.087 32.7943 348.337 32.5703C348.59 32.3437 348.88 32.1797 349.208 32.0781C349.536 31.974 349.881 31.9219 350.243 31.9219C350.483 31.9219 350.737 31.9505 351.005 32.0078C351.276 32.0625 351.528 32.1641 351.763 32.3125C352 32.4609 352.194 32.6732 352.345 32.9492C352.496 33.2227 352.571 33.5781 352.571 34.0156V38H351.431V37.1797H351.384C351.308 37.3307 351.195 37.4792 351.044 37.625C350.893 37.7708 350.699 37.8919 350.462 37.9883C350.225 38.0846 349.941 38.1328 349.61 38.1328ZM349.864 37.1953C350.187 37.1953 350.463 37.1315 350.692 37.0039C350.924 36.8763 351.1 36.7096 351.22 36.5039C351.342 36.2956 351.403 36.0729 351.403 35.8359V35.0625C351.362 35.1042 351.281 35.1432 351.161 35.1797C351.044 35.2135 350.91 35.2435 350.759 35.2695C350.608 35.293 350.461 35.3151 350.317 35.3359C350.174 35.3542 350.054 35.3698 349.958 35.3828C349.731 35.4115 349.524 35.4596 349.337 35.5273C349.152 35.5951 349.004 35.6927 348.892 35.8203C348.782 35.9453 348.728 36.112 348.728 36.3203C348.728 36.6094 348.834 36.8281 349.048 36.9766C349.261 37.1224 349.534 37.1953 349.864 37.1953ZM356.928 32V32.9375H353.65V32H356.928ZM354.529 30.5625H355.697V36.2383C355.697 36.4648 355.731 36.6354 355.799 36.75C355.867 36.862 355.954 36.9388 356.061 36.9805C356.17 37.0195 356.288 37.0391 356.416 37.0391C356.51 37.0391 356.592 37.0326 356.662 37.0195C356.732 37.0065 356.787 36.9961 356.826 36.9883L357.037 37.9531C356.969 37.9792 356.873 38.0052 356.748 38.0313C356.623 38.0599 356.467 38.0755 356.279 38.0781C355.972 38.0833 355.686 38.0286 355.42 37.9141C355.154 37.7995 354.939 37.6224 354.775 37.3828C354.611 37.1432 354.529 36.8424 354.529 36.4805V30.5625Z" fill="#363636"/>
<path d="M29.2422 32.1016C29.2005 31.7318 29.0286 31.4453 28.7266 31.2422C28.4245 31.0365 28.0443 30.9336 27.5859 30.9336C27.2578 30.9336 26.974 30.9857 26.7344 31.0898C26.4948 31.1914 26.3086 31.332 26.1758 31.5117C26.0456 31.6888 25.9805 31.8906 25.9805 32.1172C25.9805 32.3073 26.0247 32.4714 26.1133 32.6094C26.2044 32.7474 26.3229 32.8633 26.4688 32.957C26.6172 33.0482 26.776 33.125 26.9453 33.1875C27.1146 33.2474 27.2773 33.2969 27.4336 33.3359L28.2148 33.5391C28.4701 33.6016 28.7318 33.6862 29 33.793C29.2682 33.8997 29.5169 34.0404 29.7461 34.2148C29.9753 34.3893 30.1602 34.6055 30.3008 34.8633C30.444 35.1211 30.5156 35.4297 30.5156 35.7891C30.5156 36.2422 30.3984 36.6445 30.1641 36.9961C29.9323 37.3477 29.5951 37.625 29.1523 37.8281C28.7122 38.0313 28.1797 38.1328 27.5547 38.1328C26.9557 38.1328 26.4375 38.0378 26 37.8477C25.5625 37.6576 25.2201 37.388 24.9727 37.0391C24.7253 36.6875 24.5885 36.2708 24.5625 35.7891H25.7734C25.7969 36.0781 25.8906 36.319 26.0547 36.5117C26.2214 36.7018 26.4336 36.8437 26.6914 36.9375C26.9518 37.0286 27.237 37.0742 27.5469 37.0742C27.888 37.0742 28.1914 37.0208 28.457 36.9141C28.7253 36.8047 28.9362 36.6536 29.0898 36.4609C29.2435 36.2656 29.3203 36.0378 29.3203 35.7773C29.3203 35.5404 29.2526 35.3464 29.1172 35.1953C28.9844 35.0443 28.8034 34.9193 28.5742 34.8203C28.3477 34.7214 28.0911 34.6341 27.8047 34.5586L26.8594 34.3008C26.2188 34.1263 25.7109 33.8698 25.3359 33.5312C24.9635 33.1927 24.7773 32.7448 24.7773 32.1875C24.7773 31.7266 24.9023 31.3242 25.1523 30.9805C25.4023 30.6367 25.7409 30.3698 26.168 30.1797C26.5951 29.987 27.0768 29.8906 27.6133 29.8906C28.1549 29.8906 28.6328 29.9857 29.0469 30.1758C29.4635 30.3659 29.7917 30.6276 30.0313 30.9609C30.2708 31.2917 30.3958 31.6719 30.4063 32.1016H29.2422ZM35.665 35.5117V32H36.8369V38H35.6885V36.9609H35.626C35.488 37.2813 35.2666 37.5482 34.9619 37.7617C34.6598 37.9727 34.2835 38.0781 33.833 38.0781C33.4476 38.0781 33.1064 37.9935 32.8096 37.8242C32.5153 37.6523 32.2835 37.3984 32.1143 37.0625C31.9476 36.7266 31.8643 36.3112 31.8643 35.8164V32H33.0322V35.6758C33.0322 36.0846 33.1455 36.4102 33.3721 36.6523C33.5986 36.8945 33.8929 37.0156 34.2549 37.0156C34.4736 37.0156 34.6911 36.9609 34.9072 36.8516C35.126 36.7422 35.307 36.5768 35.4502 36.3555C35.596 36.1341 35.6676 35.8529 35.665 35.5117ZM39.5742 34.4375V38H38.4063V32H39.5273V32.9766H39.6016C39.7396 32.6589 39.9557 32.4036 40.25 32.2109C40.5469 32.0182 40.9206 31.9219 41.3711 31.9219C41.7799 31.9219 42.138 32.0078 42.4453 32.1797C42.7526 32.349 42.9909 32.6016 43.1602 32.9375C43.3294 33.2734 43.4141 33.6888 43.4141 34.1836V38H42.2461V34.3242C42.2461 33.8893 42.1328 33.5495 41.9062 33.3047C41.6797 33.0573 41.3685 32.9336 40.9727 32.9336C40.7018 32.9336 40.4609 32.9922 40.25 33.1094C40.0417 33.2266 39.8763 33.3984 39.7539 33.625C39.6341 33.849 39.5742 34.1198 39.5742 34.4375Z" fill="#363636"/>
<path d="M143.965 69V77H142.516V70.4102H142.469L140.598 71.6055V70.2773L142.586 69H143.965Z" fill="#363636"/>
<path d="M36.6406 118.109C36.2578 118.107 35.8841 118.04 35.5195 117.91C35.1549 117.777 34.8268 117.562 34.5352 117.266C34.2435 116.966 34.0117 116.569 33.8398 116.074C33.668 115.577 33.5833 114.961 33.5859 114.227C33.5859 113.542 33.6589 112.931 33.8047 112.395C33.9505 111.858 34.1602 111.405 34.4336 111.035C34.707 110.663 35.0365 110.379 35.4219 110.184C35.8099 109.988 36.2435 109.891 36.7227 109.891C37.2253 109.891 37.6706 109.99 38.0586 110.187C38.4492 110.385 38.7643 110.656 39.0039 111C39.2435 111.341 39.3919 111.727 39.4492 112.156H38.0234C37.9505 111.849 37.8008 111.604 37.5742 111.422C37.3503 111.237 37.0664 111.145 36.7227 111.145C36.168 111.145 35.7409 111.385 35.4414 111.867C35.1445 112.349 34.9948 113.01 34.9922 113.852H35.0469C35.1745 113.622 35.3398 113.426 35.543 113.262C35.7461 113.098 35.9753 112.971 36.2305 112.883C36.4883 112.792 36.7604 112.746 37.0469 112.746C37.5156 112.746 37.9362 112.858 38.3086 113.082C38.6836 113.306 38.9805 113.615 39.1992 114.008C39.418 114.398 39.526 114.846 39.5234 115.352C39.526 115.878 39.4062 116.35 39.1641 116.77C38.9219 117.186 38.5846 117.514 38.1523 117.754C37.7201 117.993 37.2161 118.112 36.6406 118.109ZM36.6328 116.937C36.9167 116.937 37.1706 116.868 37.3945 116.73C37.6185 116.592 37.7956 116.406 37.9258 116.172C38.056 115.937 38.1198 115.674 38.1172 115.383C38.1198 115.096 38.0573 114.837 37.9297 114.605C37.8047 114.374 37.6315 114.19 37.4102 114.055C37.1888 113.919 36.9362 113.852 36.6523 113.852C36.4414 113.852 36.2448 113.892 36.0625 113.973C35.8802 114.053 35.7214 114.165 35.5859 114.309C35.4505 114.449 35.3438 114.613 35.2656 114.801C35.1901 114.986 35.151 115.184 35.1484 115.395C35.151 115.673 35.2161 115.93 35.3438 116.164C35.4714 116.398 35.6471 116.586 35.8711 116.727C36.0951 116.867 36.349 116.937 36.6328 116.937Z" fill="#363636"/>
<path d="M35.9648 151V159H34.5156V152.41H34.4688L32.5977 153.605V152.277L34.5859 151H35.9648ZM40.8672 159.109C40.3047 159.109 39.8047 159.013 39.3672 158.82C38.9323 158.628 38.5885 158.359 38.3359 158.016C38.0833 157.672 37.9492 157.275 37.9336 156.824H39.4023C39.4154 157.04 39.487 157.229 39.6172 157.391C39.7474 157.549 39.9206 157.673 40.1367 157.762C40.3529 157.85 40.5951 157.895 40.8633 157.895C41.1497 157.895 41.4036 157.845 41.625 157.746C41.8464 157.645 42.0195 157.504 42.1445 157.324C42.2695 157.145 42.3307 156.937 42.3281 156.703C42.3307 156.461 42.2682 156.247 42.1406 156.062C42.013 155.878 41.8281 155.733 41.5859 155.629C41.3464 155.525 41.0573 155.473 40.7188 155.473H40.0117V154.355H40.7188C40.9974 154.355 41.2409 154.307 41.4492 154.211C41.6602 154.115 41.8255 153.979 41.9453 153.805C42.0651 153.628 42.1237 153.423 42.1211 153.191C42.1237 152.965 42.0729 152.768 41.9688 152.602C41.8672 152.432 41.7227 152.301 41.5352 152.207C41.3503 152.113 41.1328 152.066 40.8828 152.066C40.638 152.066 40.4115 152.111 40.2031 152.199C39.9948 152.288 39.8268 152.414 39.6992 152.578C39.5716 152.74 39.5039 152.932 39.4961 153.156H38.1016C38.112 152.708 38.2409 152.315 38.4883 151.977C38.7383 151.635 39.0716 151.37 39.4883 151.18C39.9049 150.987 40.3724 150.891 40.8906 150.891C41.4245 150.891 41.888 150.991 42.2813 151.191C42.6771 151.389 42.9831 151.656 43.1992 151.992C43.4154 152.328 43.5234 152.699 43.5234 153.105C43.526 153.556 43.3932 153.934 43.125 154.238C42.8594 154.543 42.5104 154.742 42.0781 154.836V154.898C42.6406 154.977 43.0716 155.185 43.3711 155.523C43.6732 155.859 43.8229 156.277 43.8203 156.777C43.8203 157.225 43.6927 157.626 43.4375 157.98C43.1849 158.332 42.8359 158.608 42.3906 158.809C41.9479 159.009 41.4401 159.109 40.8672 159.109Z" fill="#363636"/>
<path d="M32.7109 200V198.953L35.4883 196.23C35.7539 195.962 35.9753 195.724 36.1523 195.516C36.3294 195.307 36.4622 195.105 36.5508 194.91C36.6393 194.715 36.6836 194.507 36.6836 194.285C36.6836 194.033 36.6263 193.816 36.5117 193.637C36.3971 193.454 36.2396 193.314 36.0391 193.215C35.8385 193.116 35.6107 193.066 35.3555 193.066C35.0924 193.066 34.862 193.121 34.6641 193.23C34.4661 193.337 34.3125 193.49 34.2031 193.688C34.0964 193.885 34.043 194.121 34.043 194.395H32.6641C32.6641 193.887 32.7799 193.445 33.0117 193.07C33.2435 192.695 33.5625 192.405 33.9688 192.199C34.3776 191.993 34.8464 191.891 35.375 191.891C35.9115 191.891 36.3828 191.991 36.7891 192.191C37.1953 192.392 37.5104 192.667 37.7344 193.016C37.9609 193.365 38.0742 193.763 38.0742 194.211C38.0742 194.51 38.0169 194.805 37.9023 195.094C37.7878 195.383 37.5859 195.703 37.2969 196.055C37.0104 196.406 36.6081 196.832 36.0898 197.332L34.7109 198.734V198.789H38.1953V200H32.7109ZM42.5 200.152C41.8568 200.152 41.3047 199.99 40.8438 199.664C40.3854 199.336 40.0326 198.863 39.7852 198.246C39.5404 197.626 39.418 196.88 39.418 196.008C39.4206 195.135 39.5443 194.393 39.7891 193.781C40.0365 193.167 40.3893 192.698 40.8477 192.375C41.3086 192.052 41.8594 191.891 42.5 191.891C43.1406 191.891 43.6914 192.052 44.1523 192.375C44.6133 192.698 44.9661 193.167 45.2109 193.781C45.4583 194.396 45.582 195.138 45.582 196.008C45.582 196.883 45.4583 197.63 45.2109 198.25C44.9661 198.867 44.6133 199.339 44.1523 199.664C43.694 199.99 43.1432 200.152 42.5 200.152ZM42.5 198.93C43 198.93 43.3945 198.684 43.6836 198.191C43.9753 197.697 44.1211 196.969 44.1211 196.008C44.1211 195.372 44.0547 194.839 43.9219 194.406C43.7891 193.974 43.6016 193.648 43.3594 193.43C43.1172 193.208 42.8307 193.098 42.5 193.098C42.0026 193.098 41.6094 193.345 41.3203 193.84C41.0313 194.332 40.8854 195.055 40.8828 196.008C40.8802 196.646 40.944 197.182 41.0742 197.617C41.207 198.052 41.3945 198.38 41.6367 198.602C41.8789 198.82 42.1667 198.93 42.5 198.93Z" fill="#363636"/>
<path d="M31.7109 241V239.953L34.4883 237.23C34.7539 236.962 34.9753 236.724 35.1523 236.516C35.3294 236.307 35.4622 236.105 35.5508 235.91C35.6393 235.715 35.6836 235.507 35.6836 235.285C35.6836 235.033 35.6263 234.816 35.5117 234.637C35.3971 234.454 35.2396 234.314 35.0391 234.215C34.8385 234.116 34.6107 234.066 34.3555 234.066C34.0924 234.066 33.862 234.121 33.6641 234.23C33.4661 234.337 33.3125 234.49 33.2031 234.688C33.0964 234.885 33.043 235.121 33.043 235.395H31.6641C31.6641 234.887 31.7799 234.445 32.0117 234.07C32.2435 233.695 32.5625 233.405 32.9688 233.199C33.3776 232.993 33.8464 232.891 34.375 232.891C34.9115 232.891 35.3828 232.991 35.7891 233.191C36.1953 233.392 36.5104 233.667 36.7344 234.016C36.9609 234.365 37.0742 234.763 37.0742 235.211C37.0742 235.51 37.0169 235.805 36.9023 236.094C36.7878 236.383 36.5859 236.703 36.2969 237.055C36.0104 237.406 35.6081 237.832 35.0898 238.332L33.7109 239.734V239.789H37.1953V241H31.7109ZM38.8359 241L42.2383 234.266V234.211H38.2891V233H43.7383V234.238L40.3398 241H38.8359Z" fill="#363636"/>
<path d="M250.582 77.1094C250.02 77.1094 249.52 77.013 249.082 76.8203C248.647 76.6276 248.303 76.3594 248.051 76.0156C247.798 75.6719 247.664 75.2747 247.648 74.8242H249.117C249.13 75.0404 249.202 75.2292 249.332 75.3906C249.462 75.5495 249.635 75.6732 249.852 75.7617C250.068 75.8503 250.31 75.8945 250.578 75.8945C250.865 75.8945 251.118 75.8451 251.34 75.7461C251.561 75.6445 251.734 75.5039 251.859 75.3242C251.984 75.1445 252.046 74.9375 252.043 74.7031C252.046 74.4609 251.983 74.2474 251.855 74.0625C251.728 73.8776 251.543 73.7331 251.301 73.6289C251.061 73.5247 250.772 73.4727 250.434 73.4727H249.727V72.3555H250.434C250.712 72.3555 250.956 72.3073 251.164 72.2109C251.375 72.1146 251.54 71.9792 251.66 71.8047C251.78 71.6276 251.839 71.4232 251.836 71.1914C251.839 70.9648 251.788 70.7682 251.684 70.6016C251.582 70.4323 251.438 70.3008 251.25 70.207C251.065 70.1133 250.848 70.0664 250.598 70.0664C250.353 70.0664 250.126 70.1107 249.918 70.1992C249.71 70.2878 249.542 70.4141 249.414 70.5781C249.286 70.7396 249.219 70.9323 249.211 71.1562H247.816C247.827 70.7083 247.956 70.3151 248.203 69.9766C248.453 69.6354 248.786 69.3698 249.203 69.1797C249.62 68.987 250.087 68.8906 250.605 68.8906C251.139 68.8906 251.603 68.9909 251.996 69.1914C252.392 69.3893 252.698 69.6562 252.914 69.9922C253.13 70.3281 253.238 70.6992 253.238 71.1055C253.241 71.556 253.108 71.9336 252.84 72.2383C252.574 72.543 252.225 72.7422 251.793 72.8359V72.8984C252.355 72.9766 252.786 73.1849 253.086 73.5234C253.388 73.8594 253.538 74.2773 253.535 74.7773C253.535 75.2253 253.408 75.6263 253.152 75.9805C252.9 76.332 252.551 76.6081 252.105 76.8086C251.663 77.0091 251.155 77.1094 250.582 77.1094Z" fill="#363636"/>
<path d="M143.555 118.109C142.974 118.109 142.458 118.012 142.008 117.816C141.56 117.621 141.208 117.354 140.953 117.016C140.701 116.674 140.576 116.288 140.578 115.855C140.576 115.52 140.648 115.211 140.797 114.93C140.945 114.648 141.146 114.414 141.398 114.227C141.654 114.036 141.938 113.915 142.25 113.863V113.809C141.839 113.717 141.505 113.508 141.25 113.18C140.997 112.849 140.872 112.467 140.875 112.035C140.872 111.624 140.987 111.257 141.219 110.934C141.451 110.611 141.768 110.357 142.172 110.172C142.576 109.984 143.036 109.891 143.555 109.891C144.068 109.891 144.525 109.984 144.926 110.172C145.329 110.357 145.647 110.611 145.879 110.934C146.113 111.257 146.23 111.624 146.23 112.035C146.23 112.467 146.102 112.849 145.844 113.18C145.589 113.508 145.259 113.717 144.855 113.809V113.863C145.168 113.915 145.449 114.036 145.699 114.227C145.952 114.414 146.152 114.648 146.301 114.93C146.452 115.211 146.527 115.52 146.527 115.855C146.527 116.288 146.4 116.674 146.145 117.016C145.889 117.354 145.538 117.621 145.09 117.816C144.645 118.012 144.133 118.109 143.555 118.109ZM143.555 116.992C143.854 116.992 144.115 116.941 144.336 116.84C144.557 116.736 144.729 116.59 144.852 116.402C144.974 116.215 145.036 115.999 145.039 115.754C145.036 115.499 144.97 115.273 144.84 115.078C144.712 114.88 144.536 114.725 144.313 114.613C144.091 114.501 143.839 114.445 143.555 114.445C143.268 114.445 143.013 114.501 142.789 114.613C142.565 114.725 142.388 114.88 142.258 115.078C142.13 115.273 142.068 115.499 142.07 115.754C142.068 115.999 142.128 116.215 142.25 116.402C142.372 116.587 142.544 116.732 142.766 116.836C142.99 116.94 143.253 116.992 143.555 116.992ZM143.555 113.348C143.799 113.348 144.016 113.298 144.203 113.199C144.393 113.1 144.543 112.962 144.652 112.785C144.762 112.608 144.818 112.404 144.82 112.172C144.818 111.943 144.763 111.742 144.656 111.57C144.549 111.396 144.401 111.262 144.211 111.168C144.021 111.072 143.802 111.023 143.555 111.023C143.302 111.023 143.079 111.072 142.887 111.168C142.697 111.262 142.548 111.396 142.441 111.57C142.337 111.742 142.286 111.943 142.289 112.172C142.286 112.404 142.339 112.608 142.445 112.785C142.555 112.96 142.704 113.098 142.895 113.199C143.087 113.298 143.307 113.348 143.555 113.348Z" fill="#363636"/>
<path d="M142.965 151V159H141.516V152.41H141.469L139.598 153.605V152.277L141.586 151H142.965ZM147.777 159.109C147.257 159.109 146.79 159.012 146.379 158.816C145.967 158.618 145.641 158.348 145.398 158.004C145.159 157.66 145.031 157.267 145.016 156.824H146.422C146.448 157.152 146.59 157.421 146.848 157.629C147.105 157.835 147.415 157.937 147.777 157.937C148.061 157.937 148.314 157.872 148.535 157.742C148.757 157.612 148.931 157.431 149.059 157.199C149.186 156.967 149.249 156.703 149.246 156.406C149.249 156.104 149.185 155.836 149.055 155.602C148.924 155.367 148.746 155.184 148.52 155.051C148.293 154.915 148.033 154.848 147.738 154.848C147.499 154.845 147.263 154.889 147.031 154.98C146.799 155.072 146.616 155.191 146.48 155.34L145.172 155.125L145.59 151H150.23V152.211H146.789L146.559 154.332H146.605C146.754 154.158 146.964 154.013 147.234 153.898C147.505 153.781 147.802 153.723 148.125 153.723C148.609 153.723 149.042 153.837 149.422 154.066C149.802 154.293 150.102 154.605 150.32 155.004C150.539 155.402 150.648 155.858 150.648 156.371C150.648 156.9 150.526 157.371 150.281 157.785C150.039 158.197 149.702 158.521 149.27 158.758C148.84 158.992 148.342 159.109 147.777 159.109Z" fill="#363636"/>
<path d="M139.711 200V198.953L142.488 196.23C142.754 195.962 142.975 195.724 143.152 195.516C143.329 195.307 143.462 195.105 143.551 194.91C143.639 194.715 143.684 194.507 143.684 194.285C143.684 194.033 143.626 193.816 143.512 193.637C143.397 193.454 143.24 193.314 143.039 193.215C142.839 193.116 142.611 193.066 142.355 193.066C142.092 193.066 141.862 193.121 141.664 193.23C141.466 193.337 141.313 193.49 141.203 193.688C141.096 193.885 141.043 194.121 141.043 194.395H139.664C139.664 193.887 139.78 193.445 140.012 193.07C140.243 192.695 140.563 192.405 140.969 192.199C141.378 191.993 141.846 191.891 142.375 191.891C142.911 191.891 143.383 191.991 143.789 192.191C144.195 192.392 144.51 192.667 144.734 193.016C144.961 193.365 145.074 193.763 145.074 194.211C145.074 194.51 145.017 194.805 144.902 195.094C144.788 195.383 144.586 195.703 144.297 196.055C144.01 196.406 143.608 196.832 143.09 197.332L141.711 198.734V198.789H145.195V200H139.711ZM146.543 200V198.953L149.32 196.23C149.586 195.962 149.807 195.724 149.984 195.516C150.161 195.307 150.294 195.105 150.383 194.91C150.471 194.715 150.516 194.507 150.516 194.285C150.516 194.033 150.458 193.816 150.344 193.637C150.229 193.454 150.072 193.314 149.871 193.215C149.671 193.116 149.443 193.066 149.188 193.066C148.924 193.066 148.694 193.121 148.496 193.23C148.298 193.337 148.145 193.49 148.035 193.688C147.928 193.885 147.875 194.121 147.875 194.395H146.496C146.496 193.887 146.612 193.445 146.844 193.07C147.076 192.695 147.395 192.405 147.801 192.199C148.21 191.993 148.678 191.891 149.207 191.891C149.743 191.891 150.215 191.991 150.621 192.191C151.027 192.392 151.342 192.667 151.566 193.016C151.793 193.365 151.906 193.763 151.906 194.211C151.906 194.51 151.849 194.805 151.734 195.094C151.62 195.383 151.418 195.703 151.129 196.055C150.842 196.406 150.44 196.832 149.922 197.332L148.543 198.734V198.789H152.027V200H146.543Z" fill="#363636"/>
<path d="M138.711 241V239.953L141.488 237.23C141.754 236.962 141.975 236.724 142.152 236.516C142.329 236.307 142.462 236.105 142.551 235.91C142.639 235.715 142.684 235.507 142.684 235.285C142.684 235.033 142.626 234.816 142.512 234.637C142.397 234.454 142.24 234.314 142.039 234.215C141.839 234.116 141.611 234.066 141.355 234.066C141.092 234.066 140.862 234.121 140.664 234.23C140.466 234.337 140.313 234.49 140.203 234.688C140.096 234.885 140.043 235.121 140.043 235.395H138.664C138.664 234.887 138.78 234.445 139.012 234.07C139.243 233.695 139.563 233.405 139.969 233.199C140.378 232.993 140.846 232.891 141.375 232.891C141.911 232.891 142.383 232.991 142.789 233.191C143.195 233.392 143.51 233.667 143.734 234.016C143.961 234.365 144.074 234.763 144.074 235.211C144.074 235.51 144.017 235.805 143.902 236.094C143.788 236.383 143.586 236.703 143.297 237.055C143.01 237.406 142.608 237.832 142.09 238.332L140.711 239.734V239.789H144.195V241H138.711ZM148.32 232.891C148.703 232.893 149.076 232.961 149.438 233.094C149.802 233.224 150.13 233.438 150.422 233.734C150.714 234.029 150.945 234.423 151.117 234.918C151.289 235.413 151.375 236.025 151.375 236.754C151.378 237.441 151.305 238.056 151.156 238.598C151.01 239.137 150.801 239.592 150.527 239.965C150.254 240.337 149.924 240.621 149.539 240.816C149.154 241.012 148.72 241.109 148.238 241.109C147.733 241.109 147.285 241.01 146.895 240.812C146.507 240.615 146.193 240.344 145.953 240C145.714 239.656 145.566 239.263 145.512 238.82H146.938C147.01 239.138 147.159 239.391 147.383 239.578C147.609 239.763 147.895 239.855 148.238 239.855C148.793 239.855 149.22 239.615 149.52 239.133C149.819 238.651 149.969 237.982 149.969 237.125H149.914C149.786 237.354 149.621 237.552 149.418 237.719C149.215 237.883 148.984 238.009 148.727 238.098C148.471 238.186 148.201 238.23 147.914 238.23C147.445 238.23 147.023 238.118 146.648 237.895C146.276 237.671 145.98 237.363 145.762 236.973C145.546 236.582 145.436 236.135 145.434 235.633C145.434 235.112 145.553 234.645 145.793 234.23C146.035 233.814 146.372 233.486 146.805 233.246C147.237 233.004 147.742 232.885 148.32 232.891ZM148.324 234.063C148.043 234.063 147.789 234.132 147.563 234.27C147.339 234.405 147.161 234.59 147.031 234.824C146.904 235.056 146.84 235.315 146.84 235.602C146.842 235.885 146.906 236.143 147.031 236.375C147.159 236.607 147.332 236.79 147.551 236.926C147.772 237.061 148.025 237.129 148.309 237.129C148.52 237.129 148.716 237.089 148.898 237.008C149.081 236.927 149.24 236.815 149.375 236.672C149.513 236.526 149.62 236.361 149.695 236.176C149.773 235.991 149.811 235.796 149.809 235.59C149.809 235.316 149.743 235.064 149.613 234.832C149.486 234.6 149.31 234.414 149.086 234.273C148.865 234.133 148.611 234.063 148.324 234.063Z" fill="#363636"/>
<path d="M194.711 77V75.9531L197.488 73.2305C197.754 72.9622 197.975 72.724 198.152 72.5156C198.329 72.3073 198.462 72.1055 198.551 71.9102C198.639 71.7148 198.684 71.5065 198.684 71.2852C198.684 71.0326 198.626 70.8164 198.512 70.6367C198.397 70.4544 198.24 70.3138 198.039 70.2148C197.839 70.1159 197.611 70.0664 197.355 70.0664C197.092 70.0664 196.862 70.1211 196.664 70.2305C196.466 70.3372 196.313 70.4896 196.203 70.6875C196.096 70.8854 196.043 71.1211 196.043 71.3945H194.664C194.664 70.8867 194.78 70.4453 195.012 70.0703C195.243 69.6953 195.563 69.4049 195.969 69.1992C196.378 68.9935 196.846 68.8906 197.375 68.8906C197.911 68.8906 198.383 68.9909 198.789 69.1914C199.195 69.3919 199.51 69.6667 199.734 70.0156C199.961 70.3646 200.074 70.763 200.074 71.2109C200.074 71.5104 200.017 71.8047 199.902 72.0937C199.788 72.3828 199.586 72.7031 199.297 73.0547C199.01 73.4062 198.608 73.832 198.09 74.332L196.711 75.7344V75.7891H200.195V77H194.711Z" fill="#363636"/>
<path d="M88.0039 118L91.4063 111.266V111.211H87.457V110H92.9062V111.238L89.5078 118H88.0039Z" fill="#363636"/>
<path d="M89.9648 151V159H88.5156V152.41H88.4688L86.5977 153.605V152.277L88.5859 151H89.9648ZM91.8516 157.516V156.363L95.2461 151H96.207V152.641H95.6211L93.3359 156.262V156.324H98.0742V157.516H91.8516ZM95.668 159V157.164L95.6836 156.648V151H97.0508V159H95.668Z" fill="#363636"/>
<path d="M86.7109 200V198.953L89.4883 196.23C89.7539 195.962 89.9753 195.724 90.1523 195.516C90.3294 195.307 90.4622 195.105 90.5508 194.91C90.6393 194.715 90.6836 194.507 90.6836 194.285C90.6836 194.033 90.6263 193.816 90.5117 193.637C90.3971 193.454 90.2396 193.314 90.0391 193.215C89.8385 193.116 89.6107 193.066 89.3555 193.066C89.0924 193.066 88.862 193.121 88.6641 193.23C88.4661 193.337 88.3125 193.49 88.2031 193.688C88.0964 193.885 88.043 194.121 88.043 194.395H86.6641C86.6641 193.887 86.7799 193.445 87.0117 193.07C87.2435 192.695 87.5625 192.405 87.9688 192.199C88.3776 191.993 88.8464 191.891 89.375 191.891C89.9115 191.891 90.3828 191.991 90.7891 192.191C91.1953 192.392 91.5104 192.667 91.7344 193.016C91.9609 193.365 92.0742 193.763 92.0742 194.211C92.0742 194.51 92.0169 194.805 91.9023 195.094C91.7878 195.383 91.5859 195.703 91.2969 196.055C91.0104 196.406 90.6081 196.832 90.0898 197.332L88.7109 198.734V198.789H92.1953V200H86.7109ZM96.7969 192V200H95.3477V193.41H95.3008L93.4297 194.605V193.277L95.418 192H96.7969Z" fill="#363636"/>
<path d="M85.7109 241V239.953L88.4883 237.23C88.7539 236.962 88.9753 236.724 89.1523 236.516C89.3294 236.307 89.4622 236.105 89.5508 235.91C89.6393 235.715 89.6836 235.507 89.6836 235.285C89.6836 235.033 89.6263 234.816 89.5117 234.637C89.3971 234.454 89.2396 234.314 89.0391 234.215C88.8385 234.116 88.6107 234.066 88.3555 234.066C88.0924 234.066 87.862 234.121 87.6641 234.23C87.4661 234.337 87.3125 234.49 87.2031 234.688C87.0964 234.885 87.043 235.121 87.043 235.395H85.6641C85.6641 234.887 85.7799 234.445 86.0117 234.07C86.2435 233.695 86.5625 233.405 86.9688 233.199C87.3776 232.993 87.8464 232.891 88.375 232.891C88.9115 232.891 89.3828 232.991 89.7891 233.191C90.1953 233.392 90.5104 233.667 90.7344 234.016C90.9609 234.365 91.0742 234.763 91.0742 235.211C91.0742 235.51 91.0169 235.805 90.9023 236.094C90.7878 236.383 90.5859 236.703 90.2969 237.055C90.0104 237.406 89.6081 237.832 89.0898 238.332L87.7109 239.734V239.789H91.1953V241H85.7109ZM95.3867 241.109C94.806 241.109 94.2904 241.012 93.8398 240.816C93.3919 240.621 93.0404 240.354 92.7852 240.016C92.5326 239.674 92.4076 239.288 92.4102 238.855C92.4076 238.52 92.4805 238.211 92.6289 237.93C92.7773 237.648 92.9779 237.414 93.2305 237.227C93.4857 237.036 93.7695 236.915 94.082 236.863V236.809C93.6706 236.717 93.3372 236.508 93.082 236.18C92.8294 235.849 92.7044 235.467 92.707 235.035C92.7044 234.624 92.819 234.257 93.0508 233.934C93.2826 233.611 93.6003 233.357 94.0039 233.172C94.4076 232.984 94.8685 232.891 95.3867 232.891C95.8997 232.891 96.3568 232.984 96.7578 233.172C97.1615 233.357 97.4792 233.611 97.7109 233.934C97.9453 234.257 98.0625 234.624 98.0625 235.035C98.0625 235.467 97.9336 235.849 97.6758 236.18C97.4206 236.508 97.0911 236.717 96.6875 236.809V236.863C97 236.915 97.2813 237.036 97.5313 237.227C97.7839 237.414 97.9844 237.648 98.1328 237.93C98.2839 238.211 98.3594 238.52 98.3594 238.855C98.3594 239.288 98.2318 239.674 97.9766 240.016C97.7214 240.354 97.3698 240.621 96.9219 240.816C96.4766 241.012 95.9648 241.109 95.3867 241.109ZM95.3867 239.992C95.6862 239.992 95.9466 239.941 96.168 239.84C96.3893 239.736 96.5612 239.59 96.6836 239.402C96.806 239.215 96.8685 238.999 96.8711 238.754C96.8685 238.499 96.8021 238.273 96.6719 238.078C96.5443 237.88 96.3685 237.725 96.1445 237.613C95.9232 237.501 95.6706 237.445 95.3867 237.445C95.1003 237.445 94.8451 237.501 94.6211 237.613C94.3971 237.725 94.2201 237.88 94.0898 238.078C93.9622 238.273 93.8997 238.499 93.9023 238.754C93.8997 238.999 93.9596 239.215 94.082 239.402C94.2044 239.587 94.3763 239.732 94.5977 239.836C94.8216 239.94 95.0846 239.992 95.3867 239.992ZM95.3867 236.348C95.6315 236.348 95.8477 236.298 96.0352 236.199C96.2253 236.1 96.375 235.962 96.4844 235.785C96.5938 235.608 96.6497 235.404 96.6523 235.172C96.6497 234.943 96.5951 234.742 96.4883 234.57C96.3815 234.396 96.2331 234.262 96.043 234.168C95.8529 234.072 95.6341 234.023 95.3867 234.023C95.1341 234.023 94.9115 234.072 94.7188 234.168C94.5286 234.262 94.3802 234.396 94.2734 234.57C94.1693 234.742 94.1185 234.943 94.1211 235.172C94.1185 235.404 94.1706 235.608 94.2773 235.785C94.3867 235.96 94.5365 236.098 94.7266 236.199C94.9193 236.298 95.1393 236.348 95.3867 236.348Z" fill="#363636"/>
<path d="M297.566 75.5156V74.3633L300.961 69H301.922V70.6406H301.336L299.051 74.2617V74.3242H303.789V75.5156H297.566ZM301.383 77V75.1641L301.398 74.6484V69H302.766V77H301.383Z" fill="#363636"/>
<path d="M197.488 109.891C197.871 109.893 198.243 109.961 198.605 110.094C198.97 110.224 199.298 110.438 199.59 110.734C199.882 111.029 200.113 111.423 200.285 111.918C200.457 112.413 200.543 113.025 200.543 113.754C200.546 114.441 200.473 115.056 200.324 115.598C200.178 116.137 199.969 116.592 199.695 116.965C199.422 117.337 199.092 117.621 198.707 117.816C198.322 118.012 197.888 118.109 197.406 118.109C196.901 118.109 196.453 118.01 196.062 117.812C195.674 117.615 195.361 117.344 195.121 117C194.882 116.656 194.734 116.263 194.68 115.82H196.105C196.178 116.138 196.327 116.391 196.551 116.578C196.777 116.763 197.063 116.855 197.406 116.855C197.961 116.855 198.388 116.615 198.688 116.133C198.987 115.651 199.137 114.982 199.137 114.125H199.082C198.954 114.354 198.789 114.552 198.586 114.719C198.383 114.883 198.152 115.009 197.895 115.098C197.639 115.186 197.368 115.23 197.082 115.23C196.613 115.23 196.191 115.118 195.816 114.895C195.444 114.671 195.148 114.363 194.93 113.973C194.714 113.582 194.604 113.135 194.602 112.633C194.602 112.112 194.721 111.645 194.961 111.23C195.203 110.814 195.54 110.486 195.973 110.246C196.405 110.004 196.91 109.885 197.488 109.891ZM197.492 111.063C197.211 111.063 196.957 111.132 196.73 111.27C196.507 111.405 196.329 111.59 196.199 111.824C196.072 112.056 196.008 112.315 196.008 112.602C196.01 112.885 196.074 113.143 196.199 113.375C196.327 113.607 196.5 113.79 196.719 113.926C196.94 114.061 197.193 114.129 197.477 114.129C197.688 114.129 197.884 114.089 198.066 114.008C198.249 113.927 198.408 113.815 198.543 113.672C198.681 113.526 198.788 113.361 198.863 113.176C198.941 112.991 198.979 112.796 198.977 112.59C198.977 112.316 198.911 112.064 198.781 111.832C198.654 111.6 198.478 111.414 198.254 111.273C198.033 111.133 197.779 111.063 197.492 111.063Z" fill="#363636"/>
<path d="M196.965 151V159H195.516V152.41H195.469L193.598 153.605V152.277L195.586 151H196.965ZM201.926 159.109C201.543 159.107 201.169 159.04 200.805 158.91C200.44 158.777 200.112 158.562 199.82 158.266C199.529 157.966 199.297 157.569 199.125 157.074C198.953 156.577 198.868 155.961 198.871 155.227C198.871 154.542 198.944 153.931 199.09 153.395C199.236 152.858 199.445 152.405 199.719 152.035C199.992 151.663 200.322 151.379 200.707 151.184C201.095 150.988 201.529 150.891 202.008 150.891C202.51 150.891 202.956 150.99 203.344 151.187C203.734 151.385 204.049 151.656 204.289 152C204.529 152.341 204.677 152.727 204.734 153.156H203.309C203.236 152.849 203.086 152.604 202.859 152.422C202.635 152.237 202.352 152.145 202.008 152.145C201.453 152.145 201.026 152.385 200.727 152.867C200.43 153.349 200.28 154.01 200.277 154.852H200.332C200.46 154.622 200.625 154.426 200.828 154.262C201.031 154.098 201.26 153.971 201.516 153.883C201.773 153.792 202.046 153.746 202.332 153.746C202.801 153.746 203.221 153.858 203.594 154.082C203.969 154.306 204.266 154.615 204.484 155.008C204.703 155.398 204.811 155.846 204.809 156.352C204.811 156.878 204.691 157.35 204.449 157.77C204.207 158.186 203.87 158.514 203.438 158.754C203.005 158.993 202.501 159.112 201.926 159.109ZM201.918 157.937C202.202 157.937 202.456 157.868 202.68 157.73C202.904 157.592 203.081 157.406 203.211 157.172C203.341 156.937 203.405 156.674 203.402 156.383C203.405 156.096 203.342 155.837 203.215 155.605C203.09 155.374 202.917 155.19 202.695 155.055C202.474 154.919 202.221 154.852 201.938 154.852C201.727 154.852 201.53 154.892 201.348 154.973C201.165 155.053 201.007 155.165 200.871 155.309C200.736 155.449 200.629 155.613 200.551 155.801C200.475 155.986 200.436 156.184 200.434 156.395C200.436 156.673 200.501 156.93 200.629 157.164C200.757 157.398 200.932 157.586 201.156 157.727C201.38 157.867 201.634 157.937 201.918 157.937Z" fill="#363636"/>
<path d="M193.711 200V198.953L196.488 196.23C196.754 195.962 196.975 195.724 197.152 195.516C197.329 195.307 197.462 195.105 197.551 194.91C197.639 194.715 197.684 194.507 197.684 194.285C197.684 194.033 197.626 193.816 197.512 193.637C197.397 193.454 197.24 193.314 197.039 193.215C196.839 193.116 196.611 193.066 196.355 193.066C196.092 193.066 195.862 193.121 195.664 193.23C195.466 193.337 195.313 193.49 195.203 193.688C195.096 193.885 195.043 194.121 195.043 194.395H193.664C193.664 193.887 193.78 193.445 194.012 193.07C194.243 192.695 194.563 192.405 194.969 192.199C195.378 191.993 195.846 191.891 196.375 191.891C196.911 191.891 197.383 191.991 197.789 192.191C198.195 192.392 198.51 192.667 198.734 193.016C198.961 193.365 199.074 193.763 199.074 194.211C199.074 194.51 199.017 194.805 198.902 195.094C198.788 195.383 198.586 195.703 198.297 196.055C198.01 196.406 197.608 196.832 197.09 197.332L195.711 198.734V198.789H199.195V200H193.711ZM203.414 200.109C202.852 200.109 202.352 200.013 201.914 199.82C201.479 199.628 201.135 199.359 200.883 199.016C200.63 198.672 200.496 198.275 200.48 197.824H201.949C201.962 198.04 202.034 198.229 202.164 198.391C202.294 198.549 202.467 198.673 202.684 198.762C202.9 198.85 203.142 198.895 203.41 198.895C203.697 198.895 203.951 198.845 204.172 198.746C204.393 198.645 204.566 198.504 204.691 198.324C204.816 198.145 204.878 197.937 204.875 197.703C204.878 197.461 204.815 197.247 204.688 197.062C204.56 196.878 204.375 196.733 204.133 196.629C203.893 196.525 203.604 196.473 203.266 196.473H202.559V195.355H203.266C203.544 195.355 203.788 195.307 203.996 195.211C204.207 195.115 204.372 194.979 204.492 194.805C204.612 194.628 204.671 194.423 204.668 194.191C204.671 193.965 204.62 193.768 204.516 193.602C204.414 193.432 204.27 193.301 204.082 193.207C203.897 193.113 203.68 193.066 203.43 193.066C203.185 193.066 202.958 193.111 202.75 193.199C202.542 193.288 202.374 193.414 202.246 193.578C202.118 193.74 202.051 193.932 202.043 194.156H200.648C200.659 193.708 200.788 193.315 201.035 192.977C201.285 192.635 201.618 192.37 202.035 192.18C202.452 191.987 202.919 191.891 203.438 191.891C203.971 191.891 204.435 191.991 204.828 192.191C205.224 192.389 205.53 192.656 205.746 192.992C205.962 193.328 206.07 193.699 206.07 194.105C206.073 194.556 205.94 194.934 205.672 195.238C205.406 195.543 205.057 195.742 204.625 195.836V195.898C205.188 195.977 205.618 196.185 205.918 196.523C206.22 196.859 206.37 197.277 206.367 197.777C206.367 198.225 206.24 198.626 205.984 198.98C205.732 199.332 205.383 199.608 204.938 199.809C204.495 200.009 203.987 200.109 203.414 200.109Z" fill="#363636"/>
<path d="M195.582 241.109C195.02 241.109 194.52 241.013 194.082 240.82C193.647 240.628 193.303 240.359 193.051 240.016C192.798 239.672 192.664 239.275 192.648 238.824H194.117C194.13 239.04 194.202 239.229 194.332 239.391C194.462 239.549 194.635 239.673 194.852 239.762C195.068 239.85 195.31 239.895 195.578 239.895C195.865 239.895 196.118 239.845 196.34 239.746C196.561 239.645 196.734 239.504 196.859 239.324C196.984 239.145 197.046 238.937 197.043 238.703C197.046 238.461 196.983 238.247 196.855 238.062C196.728 237.878 196.543 237.733 196.301 237.629C196.061 237.525 195.772 237.473 195.434 237.473H194.727V236.355H195.434C195.712 236.355 195.956 236.307 196.164 236.211C196.375 236.115 196.54 235.979 196.66 235.805C196.78 235.628 196.839 235.423 196.836 235.191C196.839 234.965 196.788 234.768 196.684 234.602C196.582 234.432 196.438 234.301 196.25 234.207C196.065 234.113 195.848 234.066 195.598 234.066C195.353 234.066 195.126 234.111 194.918 234.199C194.71 234.288 194.542 234.414 194.414 234.578C194.286 234.74 194.219 234.932 194.211 235.156H192.816C192.827 234.708 192.956 234.315 193.203 233.977C193.453 233.635 193.786 233.37 194.203 233.18C194.62 232.987 195.087 232.891 195.605 232.891C196.139 232.891 196.603 232.991 196.996 233.191C197.392 233.389 197.698 233.656 197.914 233.992C198.13 234.328 198.238 234.699 198.238 235.105C198.241 235.556 198.108 235.934 197.84 236.238C197.574 236.543 197.225 236.742 196.793 236.836V236.898C197.355 236.977 197.786 237.185 198.086 237.523C198.388 237.859 198.538 238.277 198.535 238.777C198.535 239.225 198.408 239.626 198.152 239.98C197.9 240.332 197.551 240.608 197.105 240.809C196.663 241.009 196.155 241.109 195.582 241.109ZM202.833 241.152C202.19 241.152 201.638 240.99 201.177 240.664C200.718 240.336 200.366 239.863 200.118 239.246C199.873 238.626 199.751 237.88 199.751 237.008C199.754 236.135 199.877 235.393 200.122 234.781C200.369 234.167 200.722 233.698 201.181 233.375C201.642 233.052 202.192 232.891 202.833 232.891C203.474 232.891 204.024 233.052 204.485 233.375C204.946 233.698 205.299 234.167 205.544 234.781C205.791 235.396 205.915 236.138 205.915 237.008C205.915 237.883 205.791 238.63 205.544 239.25C205.299 239.867 204.946 240.339 204.485 240.664C204.027 240.99 203.476 241.152 202.833 241.152ZM202.833 239.93C203.333 239.93 203.728 239.684 204.017 239.191C204.308 238.697 204.454 237.969 204.454 237.008C204.454 236.372 204.388 235.839 204.255 235.406C204.122 234.974 203.935 234.648 203.692 234.43C203.45 234.208 203.164 234.098 202.833 234.098C202.336 234.098 201.942 234.345 201.653 234.84C201.364 235.332 201.218 236.055 201.216 237.008C201.213 237.646 201.277 238.182 201.407 238.617C201.54 239.052 201.728 239.38 201.97 239.602C202.212 239.82 202.5 239.93 202.833 239.93Z" fill="#363636"/>
<path d="M348.492 77.1094C347.971 77.1094 347.505 77.0117 347.094 76.8164C346.682 76.6185 346.355 76.3477 346.113 76.0039C345.874 75.6602 345.746 75.2669 345.73 74.8242H347.137C347.163 75.1523 347.305 75.4206 347.563 75.6289C347.82 75.8346 348.13 75.9375 348.492 75.9375C348.776 75.9375 349.029 75.8724 349.25 75.7422C349.471 75.612 349.646 75.431 349.773 75.1992C349.901 74.9674 349.964 74.7031 349.961 74.4062C349.964 74.1042 349.9 73.8359 349.77 73.6016C349.639 73.3672 349.461 73.1836 349.234 73.0508C349.008 72.9154 348.747 72.8477 348.453 72.8477C348.214 72.8451 347.978 72.8893 347.746 72.9805C347.514 73.0716 347.331 73.1914 347.195 73.3398L345.887 73.125L346.305 69H350.945V70.2109H347.504L347.273 72.332H347.32C347.469 72.1576 347.678 72.013 347.949 71.8984C348.22 71.7812 348.517 71.7227 348.84 71.7227C349.324 71.7227 349.757 71.8372 350.137 72.0664C350.517 72.293 350.816 72.6055 351.035 73.0039C351.254 73.4023 351.363 73.8581 351.363 74.3711C351.363 74.8997 351.241 75.3711 350.996 75.7852C350.754 76.1966 350.417 76.5208 349.984 76.7578C349.555 76.9922 349.057 77.1094 348.492 77.1094Z" fill="#363636"/>
<path d="M247.965 110V118H246.516V111.41H246.469L244.598 112.605V111.277L246.586 110H247.965ZM252.953 118.152C252.31 118.152 251.758 117.99 251.297 117.664C250.839 117.336 250.486 116.863 250.238 116.246C249.993 115.626 249.871 114.88 249.871 114.008C249.874 113.135 249.997 112.393 250.242 111.781C250.49 111.167 250.842 110.698 251.301 110.375C251.762 110.052 252.313 109.891 252.953 109.891C253.594 109.891 254.145 110.052 254.605 110.375C255.066 110.698 255.419 111.167 255.664 111.781C255.911 112.396 256.035 113.138 256.035 114.008C256.035 114.883 255.911 115.63 255.664 116.25C255.419 116.867 255.066 117.339 254.605 117.664C254.147 117.99 253.596 118.152 252.953 118.152ZM252.953 116.93C253.453 116.93 253.848 116.684 254.137 116.191C254.428 115.697 254.574 114.969 254.574 114.008C254.574 113.372 254.508 112.839 254.375 112.406C254.242 111.974 254.055 111.648 253.813 111.43C253.57 111.208 253.284 111.098 252.953 111.098C252.456 111.098 252.063 111.345 251.773 111.84C251.484 112.332 251.339 113.055 251.336 114.008C251.333 114.646 251.397 115.182 251.527 115.617C251.66 116.052 251.848 116.38 252.09 116.602C252.332 116.82 252.62 116.93 252.953 116.93Z" fill="#363636"/>
<path d="M246.965 151V159H245.516V152.41H245.469L243.598 153.605V152.277L245.586 151H246.965ZM249.289 159L252.691 152.266V152.211H248.742V151H254.191V152.238L250.793 159H249.289Z" fill="#363636"/>
<path d="M243.711 200V198.953L246.488 196.23C246.754 195.962 246.975 195.724 247.152 195.516C247.329 195.307 247.462 195.105 247.551 194.91C247.639 194.715 247.684 194.507 247.684 194.285C247.684 194.033 247.626 193.816 247.512 193.637C247.397 193.454 247.24 193.314 247.039 193.215C246.839 193.116 246.611 193.066 246.355 193.066C246.092 193.066 245.862 193.121 245.664 193.23C245.466 193.337 245.313 193.49 245.203 193.688C245.096 193.885 245.043 194.121 245.043 194.395H243.664C243.664 193.887 243.78 193.445 244.012 193.07C244.243 192.695 244.563 192.405 244.969 192.199C245.378 191.993 245.846 191.891 246.375 191.891C246.911 191.891 247.383 191.991 247.789 192.191C248.195 192.392 248.51 192.667 248.734 193.016C248.961 193.365 249.074 193.763 249.074 194.211C249.074 194.51 249.017 194.805 248.902 195.094C248.788 195.383 248.586 195.703 248.297 196.055C248.01 196.406 247.608 196.832 247.09 197.332L245.711 198.734V198.789H249.195V200H243.711ZM250.227 198.516V197.363L253.621 192H254.582V193.641H253.996L251.711 197.262V197.324H256.449V198.516H250.227ZM254.043 200V198.164L254.059 197.648V192H255.426V200H254.043Z" fill="#363636"/>
<path d="M298.965 110V118H297.516V111.41H297.469L295.598 112.605V111.277L297.586 110H298.965ZM304.25 110V118H302.801V111.41H302.754L300.883 112.605V111.277L302.871 110H304.25Z" fill="#363636"/>
<path d="M297.965 151V159H296.516V152.41H296.469L294.598 153.605V152.277L296.586 151H297.965ZM302.84 159.109C302.259 159.109 301.743 159.012 301.293 158.816C300.845 158.621 300.493 158.354 300.238 158.016C299.986 157.674 299.861 157.288 299.863 156.855C299.861 156.52 299.934 156.211 300.082 155.93C300.23 155.648 300.431 155.414 300.684 155.227C300.939 155.036 301.223 154.915 301.535 154.863V154.809C301.124 154.717 300.79 154.508 300.535 154.18C300.283 153.849 300.158 153.467 300.16 153.035C300.158 152.624 300.272 152.257 300.504 151.934C300.736 151.611 301.053 151.357 301.457 151.172C301.861 150.984 302.322 150.891 302.84 150.891C303.353 150.891 303.81 150.984 304.211 151.172C304.615 151.357 304.932 151.611 305.164 151.934C305.398 152.257 305.516 152.624 305.516 153.035C305.516 153.467 305.387 153.849 305.129 154.18C304.874 154.508 304.544 154.717 304.141 154.809V154.863C304.453 154.915 304.734 155.036 304.984 155.227C305.237 155.414 305.438 155.648 305.586 155.93C305.737 156.211 305.812 156.52 305.812 156.855C305.812 157.288 305.685 157.674 305.43 158.016C305.174 158.354 304.823 158.621 304.375 158.816C303.93 159.012 303.418 159.109 302.84 159.109ZM302.84 157.992C303.139 157.992 303.4 157.941 303.621 157.84C303.842 157.736 304.014 157.59 304.137 157.402C304.259 157.215 304.322 156.999 304.324 156.754C304.322 156.499 304.255 156.273 304.125 156.078C303.997 155.88 303.822 155.725 303.598 155.613C303.376 155.501 303.124 155.445 302.84 155.445C302.553 155.445 302.298 155.501 302.074 155.613C301.85 155.725 301.673 155.88 301.543 156.078C301.415 156.273 301.353 156.499 301.355 156.754C301.353 156.999 301.413 157.215 301.535 157.402C301.658 157.587 301.829 157.732 302.051 157.836C302.275 157.94 302.538 157.992 302.84 157.992ZM302.84 154.348C303.085 154.348 303.301 154.298 303.488 154.199C303.678 154.1 303.828 153.962 303.938 153.785C304.047 153.608 304.103 153.404 304.105 153.172C304.103 152.943 304.048 152.742 303.941 152.57C303.835 152.396 303.686 152.262 303.496 152.168C303.306 152.072 303.087 152.023 302.84 152.023C302.587 152.023 302.365 152.072 302.172 152.168C301.982 152.262 301.833 152.396 301.727 152.57C301.622 152.742 301.572 152.943 301.574 153.172C301.572 153.404 301.624 153.608 301.73 153.785C301.84 153.96 301.99 154.098 302.18 154.199C302.372 154.298 302.592 154.348 302.84 154.348Z" fill="#363636"/>
<path d="M294.711 200V198.953L297.488 196.23C297.754 195.962 297.975 195.724 298.152 195.516C298.329 195.307 298.462 195.105 298.551 194.91C298.639 194.715 298.684 194.507 298.684 194.285C298.684 194.033 298.626 193.816 298.512 193.637C298.397 193.454 298.24 193.314 298.039 193.215C297.839 193.116 297.611 193.066 297.355 193.066C297.092 193.066 296.862 193.121 296.664 193.23C296.466 193.337 296.313 193.49 296.203 193.688C296.096 193.885 296.043 194.121 296.043 194.395H294.664C294.664 193.887 294.78 193.445 295.012 193.07C295.243 192.695 295.563 192.405 295.969 192.199C296.378 191.993 296.846 191.891 297.375 191.891C297.911 191.891 298.383 191.991 298.789 192.191C299.195 192.392 299.51 192.667 299.734 193.016C299.961 193.365 300.074 193.763 300.074 194.211C300.074 194.51 300.017 194.805 299.902 195.094C299.788 195.383 299.586 195.703 299.297 196.055C299.01 196.406 298.608 196.832 298.09 197.332L296.711 198.734V198.789H300.195V200H294.711ZM304.324 200.109C303.803 200.109 303.337 200.012 302.926 199.816C302.514 199.618 302.188 199.348 301.945 199.004C301.706 198.66 301.578 198.267 301.562 197.824H302.969C302.995 198.152 303.137 198.421 303.395 198.629C303.652 198.835 303.962 198.937 304.324 198.937C304.608 198.937 304.861 198.872 305.082 198.742C305.303 198.612 305.478 198.431 305.605 198.199C305.733 197.967 305.796 197.703 305.793 197.406C305.796 197.104 305.732 196.836 305.602 196.602C305.471 196.367 305.293 196.184 305.066 196.051C304.84 195.915 304.579 195.848 304.285 195.848C304.046 195.845 303.81 195.889 303.578 195.98C303.346 196.072 303.163 196.191 303.027 196.34L301.719 196.125L302.137 192H306.777V193.211H303.336L303.105 195.332H303.152C303.301 195.158 303.51 195.013 303.781 194.898C304.052 194.781 304.349 194.723 304.672 194.723C305.156 194.723 305.589 194.837 305.969 195.066C306.349 195.293 306.648 195.605 306.867 196.004C307.086 196.402 307.195 196.858 307.195 197.371C307.195 197.9 307.073 198.371 306.828 198.785C306.586 199.197 306.249 199.521 305.816 199.758C305.387 199.992 304.889 200.109 304.324 200.109Z" fill="#363636"/>
<path d="M346.965 110V118H345.516V111.41H345.469L343.598 112.605V111.277L345.586 110H346.965ZM348.996 118V116.953L351.773 114.23C352.039 113.962 352.26 113.724 352.438 113.516C352.615 113.307 352.747 113.105 352.836 112.91C352.924 112.715 352.969 112.507 352.969 112.285C352.969 112.033 352.911 111.816 352.797 111.637C352.682 111.454 352.525 111.314 352.324 111.215C352.124 111.116 351.896 111.066 351.641 111.066C351.378 111.066 351.147 111.121 350.949 111.23C350.751 111.337 350.598 111.49 350.488 111.688C350.382 111.885 350.328 112.121 350.328 112.395H348.949C348.949 111.887 349.065 111.445 349.297 111.07C349.529 110.695 349.848 110.405 350.254 110.199C350.663 109.993 351.132 109.891 351.66 109.891C352.197 109.891 352.668 109.991 353.074 110.191C353.48 110.392 353.796 110.667 354.02 111.016C354.246 111.365 354.359 111.763 354.359 112.211C354.359 112.51 354.302 112.805 354.188 113.094C354.073 113.383 353.871 113.703 353.582 114.055C353.296 114.406 352.893 114.832 352.375 115.332L350.996 116.734V116.789H354.48V118H348.996Z" fill="#FFF6EF"/>
<path d="M345.965 151V159H344.516V152.41H344.469L342.598 153.605V152.277L344.586 151H345.965ZM350.773 150.891C351.156 150.893 351.529 150.961 351.891 151.094C352.255 151.224 352.583 151.438 352.875 151.734C353.167 152.029 353.398 152.423 353.57 152.918C353.742 153.413 353.828 154.025 353.828 154.754C353.831 155.441 353.758 156.056 353.609 156.598C353.464 157.137 353.254 157.592 352.98 157.965C352.707 158.337 352.378 158.621 351.992 158.816C351.607 159.012 351.173 159.109 350.691 159.109C350.186 159.109 349.738 159.01 349.348 158.812C348.96 158.615 348.646 158.344 348.406 158C348.167 157.656 348.02 157.263 347.965 156.82H349.391C349.464 157.138 349.612 157.391 349.836 157.578C350.063 157.763 350.348 157.855 350.691 157.855C351.246 157.855 351.673 157.615 351.973 157.133C352.272 156.651 352.422 155.982 352.422 155.125H352.367C352.24 155.354 352.074 155.552 351.871 155.719C351.668 155.883 351.438 156.009 351.18 156.098C350.924 156.186 350.654 156.23 350.367 156.23C349.898 156.23 349.477 156.118 349.102 155.895C348.729 155.671 348.434 155.363 348.215 154.973C347.999 154.582 347.889 154.135 347.887 153.633C347.887 153.112 348.007 152.645 348.246 152.23C348.488 151.814 348.826 151.486 349.258 151.246C349.69 151.004 350.195 150.885 350.773 150.891ZM350.777 152.063C350.496 152.063 350.242 152.132 350.016 152.27C349.792 152.405 349.615 152.59 349.484 152.824C349.357 153.056 349.293 153.315 349.293 153.602C349.296 153.885 349.359 154.143 349.484 154.375C349.612 154.607 349.785 154.79 350.004 154.926C350.225 155.061 350.478 155.129 350.762 155.129C350.973 155.129 351.169 155.089 351.352 155.008C351.534 154.927 351.693 154.815 351.828 154.672C351.966 154.526 352.073 154.361 352.148 154.176C352.227 153.991 352.264 153.796 352.262 153.59C352.262 153.316 352.197 153.064 352.066 152.832C351.939 152.6 351.763 152.414 351.539 152.273C351.318 152.133 351.064 152.063 350.777 152.063Z" fill="#363636"/>
<path d="M342.711 200V198.953L345.488 196.23C345.754 195.962 345.975 195.724 346.152 195.516C346.329 195.307 346.462 195.105 346.551 194.91C346.639 194.715 346.684 194.507 346.684 194.285C346.684 194.033 346.626 193.816 346.512 193.637C346.397 193.454 346.24 193.314 346.039 193.215C345.839 193.116 345.611 193.066 345.355 193.066C345.092 193.066 344.862 193.121 344.664 193.23C344.466 193.337 344.313 193.49 344.203 193.688C344.096 193.885 344.043 194.121 344.043 194.395H342.664C342.664 193.887 342.78 193.445 343.012 193.07C343.243 192.695 343.563 192.405 343.969 192.199C344.378 191.993 344.846 191.891 345.375 191.891C345.911 191.891 346.383 191.991 346.789 192.191C347.195 192.392 347.51 192.667 347.734 193.016C347.961 193.365 348.074 193.763 348.074 194.211C348.074 194.51 348.017 194.805 347.902 195.094C347.788 195.383 347.586 195.703 347.297 196.055C347.01 196.406 346.608 196.832 346.09 197.332L344.711 198.734V198.789H348.195V200H342.711ZM352.473 200.109C352.09 200.107 351.716 200.04 351.352 199.91C350.987 199.777 350.659 199.562 350.367 199.266C350.076 198.966 349.844 198.569 349.672 198.074C349.5 197.577 349.415 196.961 349.418 196.227C349.418 195.542 349.491 194.931 349.637 194.395C349.783 193.858 349.992 193.405 350.266 193.035C350.539 192.663 350.868 192.379 351.254 192.184C351.642 191.988 352.076 191.891 352.555 191.891C353.057 191.891 353.503 191.99 353.891 192.187C354.281 192.385 354.596 192.656 354.836 193C355.076 193.341 355.224 193.727 355.281 194.156H353.855C353.783 193.849 353.633 193.604 353.406 193.422C353.182 193.237 352.898 193.145 352.555 193.145C352 193.145 351.573 193.385 351.273 193.867C350.977 194.349 350.827 195.01 350.824 195.852H350.879C351.007 195.622 351.172 195.426 351.375 195.262C351.578 195.098 351.807 194.971 352.063 194.883C352.32 194.792 352.592 194.746 352.879 194.746C353.348 194.746 353.768 194.858 354.141 195.082C354.516 195.306 354.813 195.615 355.031 196.008C355.25 196.398 355.358 196.846 355.355 197.352C355.358 197.878 355.238 198.35 354.996 198.77C354.754 199.186 354.417 199.514 353.984 199.754C353.552 199.993 353.048 200.112 352.473 200.109ZM352.465 198.937C352.749 198.937 353.003 198.868 353.227 198.73C353.451 198.592 353.628 198.406 353.758 198.172C353.888 197.937 353.952 197.674 353.949 197.383C353.952 197.096 353.889 196.837 353.762 196.605C353.637 196.374 353.464 196.19 353.242 196.055C353.021 195.919 352.768 195.852 352.484 195.852C352.273 195.852 352.077 195.892 351.895 195.973C351.712 196.053 351.553 196.165 351.418 196.309C351.283 196.449 351.176 196.613 351.098 196.801C351.022 196.986 350.983 197.184 350.98 197.395C350.983 197.673 351.048 197.93 351.176 198.164C351.303 198.398 351.479 198.586 351.703 198.727C351.927 198.867 352.181 198.937 352.465 198.937Z" fill="#363636"/>
<circle cx="300.5" cy="113.5" r="15" stroke="#4F6DFF" stroke-width="3"/>
<ellipse cx="267.5" cy="228.5" rx="70.5" ry="87.5" fill="#FFD147"/>
<circle cx="250.514" cy="204.514" r="5.51356" fill="black"/>
<circle cx="285.513" cy="204.514" r="5.51356" fill="black"/>
<path d="M258.424 218.657C261.164 220.104 268.835 222.13 277.602 218.657" stroke="black" stroke-width="3.83552" stroke-linecap="round"/>
<ellipse cx="159.5" cy="275" rx="57.5" ry="41" fill="#278700"/>
<circle cx="146.514" cy="264.514" r="5.51356" fill="black"/>
<path d="M172 249C172.58 250.531 175.391 253.463 182 252.938" stroke="black" stroke-linecap="round"/>
<path d="M151 249C150.42 250.531 147.609 253.463 141 252.938" stroke="black" stroke-linecap="round"/>
<circle cx="175.514" cy="264.514" r="5.51356" fill="black"/>
<path d="M167.905 277.533C166.077 276.497 160.937 275.008 155 277.335" stroke="black" stroke-width="3.83552" stroke-linecap="round"/>
</svg>
