<svg width="279" height="123" viewBox="0 0 279 123" fill="none" xmlns="http://www.w3.org/2000/svg">
<path d="M4.34118 90V22.646H33.4139C38.4128 22.646 42.7869 23.6326 46.5361 25.6059C50.2853 27.5791 53.2013 30.3527 55.2842 33.9265C57.3671 37.5003 58.4086 41.677 58.4086 46.4567C58.4086 51.2802 57.3342 55.457 55.1856 58.9869C53.0588 62.5168 50.066 65.2356 46.2072 67.143C42.3703 69.0505 37.8866 70.0043 32.7561 70.0043H15.3914V55.7968H29.0727C31.2214 55.7968 33.0521 55.4241 34.565 54.6786C36.0997 53.9112 37.2727 52.8259 38.084 51.4227C38.9171 50.0195 39.3337 48.3642 39.3337 46.4567C39.3337 44.5273 38.9171 42.8829 38.084 41.5235C37.2727 40.1422 36.0997 39.0898 34.565 38.3663C33.0521 37.6209 31.2214 37.2481 29.0727 37.2481H22.6267V90H4.34118Z" fill="black"/>
<path d="M178.222 47.9037H159.674C159.542 46.369 159.191 44.9767 158.621 43.727C158.073 42.4773 157.306 41.4029 156.319 40.504C155.355 39.5832 154.182 38.8816 152.8 38.3992C151.419 37.8949 149.851 37.6428 148.097 37.6428C145.028 37.6428 142.43 38.3882 140.303 39.8791C138.198 41.3701 136.598 43.5078 135.501 46.2922C134.427 49.0767 133.89 52.4203 133.89 56.323C133.89 60.4449 134.438 63.8981 135.534 66.6826C136.652 69.4452 138.264 71.5281 140.369 72.9313C142.474 74.3126 145.006 75.0032 147.966 75.0032C149.654 75.0032 151.167 74.7949 152.504 74.3783C153.842 73.9398 155.004 73.315 155.99 72.5037C156.977 71.6925 157.777 70.7168 158.391 69.5767C159.027 68.4147 159.455 67.1102 159.674 65.6631L178.222 65.7947C178.003 68.6449 177.203 71.55 175.822 74.5099C174.44 77.4479 172.478 80.1666 169.935 82.666C167.413 85.1436 164.289 87.1388 160.562 88.6516C156.834 90.1644 152.504 90.9209 147.571 90.9209C141.388 90.9209 135.841 89.5944 130.93 86.9414C126.041 84.2885 122.171 80.3858 119.321 75.2334C116.492 70.081 115.078 63.7775 115.078 56.323C115.078 48.8246 116.525 42.5102 119.419 37.3797C122.313 32.2273 126.216 28.3356 131.127 25.7045C136.039 23.0516 141.52 21.7251 147.571 21.7251C151.825 21.7251 155.738 22.3061 159.312 23.4682C162.886 24.6302 166.021 26.3294 168.718 28.5658C171.415 30.7802 173.585 33.5099 175.23 36.7548C176.874 39.9997 177.872 43.716 178.222 47.9037ZM186.518 90V22.646H204.804V49.877H205.725L225.984 22.646H247.295L224.537 52.6396L247.821 90H225.984L210.855 64.7422L204.804 72.6353V90H186.518ZM271.007 22.646V90H252.721V22.646H271.007Z" fill="black"/>
<rect x="76.6941" y="45.9287" width="17.3647" height="43.7893" rx="3" fill="#FF82BC"/>
<path d="M82.8526 24.1868C84.0334 22.3491 86.7196 22.3491 87.9004 24.1868L104.964 50.744C106.247 52.7406 104.814 55.3657 102.44 55.3657H68.3126C65.9394 55.3657 64.5058 52.7406 65.7887 50.744L82.8526 24.1868Z" fill="#FF82BC"/>
</svg>
