<svg width="393" height="736" viewBox="0 0 393 736" fill="none" xmlns="http://www.w3.org/2000/svg">
<path d="M231.863 138.111L241.451 162.875L260.282 144.151L328.756 76.0703L323.98 172.512L322.667 199.034L347.485 189.59L437.73 155.245L394.142 241.406L382.153 265.102L408.668 266.567L505.08 271.897L430.215 332.881L409.626 349.652L433.252 361.776L519.16 405.86L425.964 431.12L400.333 438.067L416.985 458.752L477.535 533.967L382.122 519.137L355.882 515.058L362.682 540.729L387.404 634.069L306.271 581.712L283.959 567.313L279.729 593.529L264.35 688.855L211.527 608.026L197 585.797L182.473 608.026L129.649 688.855L114.271 593.529L110.041 567.313L87.7285 581.712L6.59473 634.069L31.3184 540.729L38.1182 515.058L11.8779 519.137L-83.5361 533.967L-22.9854 458.752L-6.33301 438.067L-31.9639 431.12L-125.161 405.86L-39.252 361.776L-15.626 349.652L-36.2148 332.881L-111.081 271.897L-14.668 266.567L11.8467 265.102L-0.141602 241.406L-43.7314 155.245L46.5146 189.59L71.333 199.034L70.0195 172.512L65.2432 76.0703L133.718 144.151L152.549 162.875L162.137 138.111L197 48.0645L231.863 138.111Z" fill="#FF82BC" stroke="#FFD147" stroke-width="34.7081"/>
</svg>
