<svg width="88" height="94" viewBox="0 0 88 94" fill="none" xmlns="http://www.w3.org/2000/svg">
<path d="M87.4978 41.951C87.4978 67.7678 84.7628 93.4908 59.2108 93.4908C33.6589 93.4908 0 62.7337 0 36.9169C0 11.1001 33.6589 0 59.2108 0C84.7628 0 87.4978 16.1342 87.4978 41.951Z" fill="#391E99"/>
<circle cx="30.6821" cy="23.4925" r="4.07524" fill="white" stroke="white" stroke-width="0.47944"/>
<path d="M58.7305 19.4167C61.1259 19.4168 63.0459 21.2543 63.0459 23.4929C63.0456 25.7314 61.1258 27.5681 58.7305 27.5681C56.3352 27.5681 54.4153 25.7314 54.415 23.4929C54.415 21.2543 56.335 19.4167 58.7305 19.4167Z" fill="white" stroke="white" stroke-width="0.47944"/>
<path d="M41.2344 31.6431C42.1933 32.7285 44.8781 34.248 47.9465 31.6431" stroke="white" stroke-width="3.83552" stroke-linecap="round"/>
</svg>
