<svg width="32" height="32" viewBox="0 0 32 32" fill="none" xmlns="http://www.w3.org/2000/svg">
<mask id="path-1-inside-1_1817_2447" fill="white">
<path fill-rule="evenodd" clip-rule="evenodd" d="M9.05494 14.9419C9.05498 14.942 9.055 14.942 9.05499 14.942C8.48461 18.613 10.8034 22.066 14.3205 22.9881C14.7173 23.0921 14.9965 23.468 14.9335 23.8733C14.8705 24.2787 14.4892 24.5593 14.0906 24.4623C9.76272 23.4087 6.89067 19.1959 7.58707 14.7139C7.58708 14.7139 7.58705 14.7139 7.58702 14.7139C7.58698 14.7138 7.58696 14.7138 7.58697 14.7138C8.32149 9.98685 12.7471 6.74967 17.4738 7.48047C17.4774 7.48103 17.4799 7.48443 17.4794 7.48804C17.4788 7.49156 17.4812 7.49488 17.4847 7.49557C21.8189 8.35524 24.788 12.337 24.4322 16.691C24.3987 17.0999 24.0123 17.3733 23.6077 17.3055C23.2032 17.2376 22.9343 16.8544 22.9606 16.445C23.1929 12.8166 20.646 9.52851 16.9824 8.91369C16.9821 8.91365 16.9819 8.91338 16.9819 8.9131C16.982 8.91281 16.9818 8.91254 16.9815 8.9125C13.1661 8.46501 9.64973 11.1139 9.05489 14.9419C9.05488 14.9419 9.05491 14.9419 9.05494 14.9419Z"/>
</mask>
<path d="M9.05489 14.9419L7.58697 14.7138L9.05489 14.9419ZM16.9815 8.9125L16.8084 10.3879L16.9815 8.9125ZM16.9824 8.91369L17.2282 7.44864L16.9824 8.91369ZM22.9606 16.445L21.4781 16.35L22.9606 16.445ZM24.4322 16.691L22.9516 16.57L24.4322 16.691ZM17.4847 7.49557L17.7737 6.03842L17.4847 7.49557ZM17.4738 7.48047L17.7008 6.01238L17.4738 7.48047ZM7.58697 14.7138L9.05489 14.9419L7.58697 14.7138ZM7.58707 14.7139L9.055 14.942L7.58707 14.7139ZM9.05499 14.942L7.58707 14.7139L9.05499 14.942ZM14.6973 21.5511C11.9094 20.8202 10.0707 18.0807 10.5229 15.1701L7.58707 14.7139C6.89854 19.1454 9.69744 23.3118 13.9438 24.4251L14.6973 21.5511ZM6.11915 14.4858C5.30325 19.7369 8.6679 24.6711 13.7392 25.9057L14.442 23.0189C10.8575 22.1463 8.4781 18.6549 9.055 14.942L6.11915 14.4858ZM17.7008 6.01238C12.1638 5.15629 6.97949 8.94841 6.11904 14.4857L9.05489 14.9419C9.66349 11.0253 13.3305 8.34305 17.2468 8.94856L17.7008 6.01238ZM17.1956 8.95273C20.7853 9.6647 23.2463 12.9642 22.9516 16.57L25.9128 16.812C26.3298 11.7098 22.8525 7.04578 17.7737 6.03842L17.1956 8.95273ZM24.4431 16.5399C24.7236 12.1592 21.6507 8.19081 17.2282 7.44864L16.7365 10.3787C19.6412 10.8662 21.6622 13.4739 21.4781 16.35L24.4431 16.5399ZM10.5228 15.17C10.9945 12.1343 13.7835 10.0331 16.8084 10.3879L17.1545 7.43708C12.5488 6.89689 8.30494 10.0934 7.58697 14.7138L10.5228 15.17ZM7.58697 14.7138C7.46937 15.4706 7.94902 16.2072 8.71361 16.3877L9.39627 13.4961C10.1608 13.6766 10.6404 14.4132 10.5228 15.17L7.58697 14.7138ZM18.4471 9.15836C18.5889 8.31151 17.9889 7.53494 17.1545 7.43708L16.8084 10.3879C15.9747 10.2901 15.3751 9.51411 15.5168 8.66784L18.4471 9.15836ZM17.2282 7.44864C18.0266 7.58262 18.5842 8.33947 18.4471 9.15836L15.5168 8.66784C15.3796 9.48729 15.9376 10.2447 16.7365 10.3787L17.2282 7.44864ZM23.8535 15.8404C24.2919 15.914 24.4593 16.2856 24.4431 16.5399L21.4781 16.35C21.4094 17.4231 22.1145 18.5613 23.362 18.7706L23.8535 15.8404ZM22.9516 16.57C22.9958 16.0289 23.4842 15.7785 23.8535 15.8404L23.362 18.7706C24.5404 18.9682 25.8017 18.1708 25.9128 16.812L22.9516 16.57ZM16.0114 7.25991C15.887 8.06061 16.4212 8.79912 17.1956 8.95273L17.7737 6.03842C18.5412 6.19065 19.0706 6.92251 18.9473 7.71617L16.0114 7.25991ZM17.2468 8.94856C16.4494 8.82528 15.8844 8.07766 16.0114 7.25991L18.9473 7.71617C19.0755 6.89119 18.5054 6.13678 17.7008 6.01238L17.2468 8.94856ZM7.92837 13.2681C8.68443 13.4466 9.17381 14.1765 9.05489 14.9419L6.11904 14.4857C6.00011 15.2511 6.48953 15.9811 7.24567 16.1596L7.92837 13.2681ZM9.055 14.942C9.17254 14.1855 8.69318 13.4486 7.92837 13.2681L7.24567 16.1596C6.48093 15.9791 6.00161 15.2423 6.11915 14.4858L9.055 14.942ZM13.4655 23.6452C13.5231 23.2751 13.9146 22.8905 14.442 23.0189L13.7392 25.9057C15.0637 26.2281 16.2179 25.2822 16.4014 24.1014L13.4655 23.6452ZM10.5229 15.1701C10.6411 14.4096 10.1572 13.6758 9.39627 13.4961L8.71361 16.3877C7.95273 16.2081 7.46892 15.4744 7.58707 14.7139L10.5229 15.1701ZM13.9438 24.4251C13.6973 24.3605 13.3973 24.0845 13.4655 23.6452L16.4014 24.1014C16.5956 22.8515 15.7373 21.8238 14.6973 21.5511L13.9438 24.4251Z" fill="#363636" mask="url(#path-1-inside-1_1817_2447)"/>
<path d="M20.7637 16.3662L23.2664 19.3147L26.6179 17.3848" stroke="#363636" stroke-width="1.48554" stroke-linecap="round" stroke-linejoin="round"/>
</svg>
